<?xml version="1.0" encoding="utf-8"?>
<!-- Generator: Adobe Illustrator 22.0.0, SVG Export Plug-In . SVG Version: 6.00 Build 0)  -->
<svg version="1.1" id="Layer_2_1_" xmlns="http://www.w3.org/2000/svg" xmlns:xlink="http://www.w3.org/1999/xlink" x="0px" y="0px"
	 viewBox="0 0 50 50" style="enable-background:new 0 0 50 50;" xml:space="preserve">
<path d="M50,46.8c0-0.3,0-0.7,0-1c0-0.1,0-0.1,0-0.2c0-0.1,0-0.2,0-0.3c0-0.7,0-1.3,0-2c0-0.1,0-0.1-0.1-0.2
	c-0.1-0.1-0.1-0.1-0.2-0.1c-0.1,0-0.2,0-0.3,0c-0.2,0-0.4-0.1-0.6,0s-0.3,0-0.5-0.1c0,0,0-0.1,0-0.1c0-0.4,0-0.9,0-1.3
	c0-0.5,0-1,0-1.5c0-0.2,0-0.5,0-0.7c0-0.4,0-0.8-0.1-1.1c0-0.2,0-0.4,0-0.5c0.2,0,0.3-0.1,0.4-0.1c0,0,0,0,0,0.1
	c0,0,0.1,0.1,0.1,0.1c0,0,0.1-0.1,0.1-0.2c-0.1-0.3,0-0.7,0-1c0-0.4,0-0.8,0-1.2c0-0.9,0.1-1.9,0-2.8c0,0,0,0,0,0
	c0-0.8,0.1-1.6,0.1-2.4c0-0.2,0-0.4,0-0.7c0-0.2,0-0.4,0-0.6c0-0.4,0-0.7-0.3-0.8c-0.1,0-0.2,0-0.2,0c-0.2,0-0.4-0.1-0.7-0.1
	c-0.2,0-0.3,0-0.5,0c-0.3-0.1-0.5-0.1-0.8,0c-0.1,0-0.3,0-0.4-0.1c-0.2-0.1-0.3-0.4-0.4-0.6c0,0,0,0,0-0.1c0,0,0.1,0,0.1,0.1
	c0-0.1,0-0.2,0-0.3c-0.1,0-0.1,0.1-0.1,0.1c0,0,0-0.1,0-0.1c0,0,0-0.1,0-0.1c-0.1-0.2-0.2-0.4-0.3-0.6c-0.1-0.1-0.2-0.3-0.2-0.4
	c-0.1-0.2-0.2-0.5-0.3-0.7c-0.1-0.2-0.3-0.4-0.4-0.6c0,0,0.1,0,0.1,0c-0.1-0.1-0.1-0.1-0.2-0.2c0,0-0.1-0.1-0.1-0.1
	c0-0.3-0.2-0.3-0.2-0.5c0,0,0,0.1,0,0.1c0,0.1,0,0.2-0.1,0.2c-0.1,0-0.1,0-0.1-0.1c0-0.1-0.1-0.2-0.1-0.3c0-0.5-0.2-0.8-0.4-1.2
	c-0.2-0.4-0.4-0.8-0.6-1.1c-0.2-0.3-0.3-0.7-0.5-1c-0.1-0.2-0.2-0.4-0.3-0.6c-0.1-0.3-0.3-0.6-0.4-0.9c-0.1-0.2-0.2-0.3-0.2-0.4
	c0,0,0-0.1,0-0.2c-0.1-0.3-0.3-0.6-0.4-1c-0.1-0.2-0.2-0.5-0.3-0.7c-0.1-0.3-0.3-0.5-0.4-0.8c-0.2-0.4-0.4-0.8-0.6-1.2
	c-0.4-0.7-0.7-1.5-1.1-2.2c-0.3-0.5-0.5-1-0.8-1.5c-0.2-0.3-0.3-0.6-0.5-0.9c-0.2-0.4-0.4-0.7-0.6-1.1c-0.3-0.5-0.6-0.9-0.9-1.4
	c-0.2-0.2-0.3-0.5-0.5-0.7c-0.1-0.1-0.2-0.2-0.3-0.3c-0.1-0.1-0.2-0.3-0.2-0.4c0-0.2,0-0.4-0.1-0.6c0-0.1,0-0.2,0-0.3
	c0-0.1,0.1-0.2,0.1-0.3c0,0,0,0,0,0c0,0.1-0.1,0.1-0.1,0.3c0-0.4,0-0.8,0.1-1.2c0-0.2,0-0.4,0-0.6c0-0.2,0-0.5,0-0.8
	c0-0.4,0-0.9,0-1.3c0-0.3,0-0.7-0.2-1c-0.2,0-0.3,0-0.5,0c0,0,0,0.1,0,0.1c-0.1,0-0.1,0-0.2,0c-0.2,0-0.4-0.1-0.6-0.1
	c-0.3,0-0.6,0-0.9,0c-0.1,0-0.3,0-0.4,0c-0.2,0-0.3,0-0.5,0c-0.1,0-0.1,0-0.2,0c-0.3,0-0.5,0.1-0.8,0.1c-0.4,0-0.9-0.1-1.3-0.1
	c0,0-0.1,0-0.1,0c0,0,0,0.1,0,0.1c-0.1,0-0.2,0.1-0.3,0.1c0,0,0,0,0,0.1c0,0,0.1,0,0.1,0c-0.1,0.1-0.1,0.1-0.2,0.2
	c0.1,0.1,0.2,0.2,0.3,0.3C29.1,1,29.2,1,29.3,1c0.1,0,0.1,0.1,0.2,0.2c0,0,0,0.1,0,0.2c-0.2,0.3-0.3,0.6-0.4,0.9
	c-0.2,0.5-0.4,0.9-0.7,1.4C28.2,4.1,28,4.5,27.9,5c0,0.1,0,0.1,0,0.2c0,0.1-0.1,0.2-0.1,0.3c0,0.1-0.1,0.1-0.1,0.2
	C27.6,6,27.5,6,27.4,6c-0.3,0-0.6,0-0.9,0c-0.3,0-0.6,0-0.9,0c-0.6,0-1.1,0-1.7,0c-0.2,0-0.5,0-0.7,0c-0.3,0-0.7-0.1-1-0.1
	c-0.4,0-0.7,0-1.1,0c-0.4,0-0.7,0-1.1,0c-0.3,0-0.6,0-0.9,0c-0.3,0-0.6,0-0.9,0c-0.2,0-0.3,0.1-0.5,0c-0.1,0-0.2,0-0.3,0.1
	c0,0-0.1,0-0.1,0c-0.2,0-0.3,0-0.5,0c-0.1,0-0.1,0-0.2,0c-0.2,0.1-0.5-0.2-0.6-0.4c0-0.1-0.1-0.1-0.2-0.1c-0.1,0-0.2,0.1-0.3,0.1
	c-0.1,0-0.1,0.2-0.2,0.2c-0.1,0-0.2-0.1-0.3-0.1c0,0,0,0,0,0.1c0,0,0,0.1,0.1,0.1c-0.1,0-0.1,0-0.2,0c-0.1,0-0.2-0.1-0.2-0.1
	c-0.2,0.1-0.4,0.2-0.6,0.1c-0.2,0-0.5,0-0.7,0c0-0.4,0-0.8,0-1.2c0-0.5,0-0.9,0-1.4c0-0.2,0-0.5,0-0.7c0-0.1-0.1-0.2-0.1-0.3
	c0.1,0,0.1,0,0.2,0c0.3,0,0.6,0,0.9,0c0.3,0,0.6,0.1,0.9,0.1c0.7,0,1.3,0,2,0c0.3,0,0.5,0,0.8,0c0.2,0,0.5,0,0.7,0
	c0.1,0,0.2,0.1,0.2,0.1c0.2,0,0.3,0,0.5,0c0.4,0,0.7,0.1,1.1,0.2c0.4,0,0.9,0,1.3,0c0.8,0,1.7,0.1,2.5,0.1c0.4,0,0.9,0.1,1.3,0
	c0,0,0.1,0,0.1,0c0.1,0.1,0.2,0.1,0.3-0.1c0.2,0.2,0.2,0.2,0.3,0.1c-0.1,0-0.1-0.1-0.2-0.1c0.2-0.1,0.2,0.1,0.3,0.3
	c0-0.4,0-0.4,0.3-0.3c0-0.2,0.1-0.2,0.2-0.2c0.1,0,0.2,0,0.4,0c0,0,0.1-0.1,0.1-0.1C27.2,2,27.3,2,27.3,2c0.1,0.1,0.2,0.1,0.3,0.2
	s0.2,0,0.4,0c0.1,0,0.2,0,0.2-0.2c0.2,0,0.3-0.1,0.5-0.1c0.1,0,0.2,0,0.1-0.2c0,0,0.1-0.1,0.1-0.1c0,0,0,0,0,0c-0.1,0-0.3,0-0.3-0.1
	c-0.1-0.2-0.2-0.1-0.3-0.1c-0.1,0-0.2,0-0.3,0c0,0-0.1,0.1-0.1,0.1c-0.2,0-0.4-0.2-0.6,0c0,0,0,0,0,0c-0.1,0-0.3,0-0.4,0
	c-0.4,0-0.8,0-1.2,0c0,0,0,0,0,0c0,0,0,0.1,0,0.1c-0.2,0.2-0.4,0.3-0.6,0.3c-0.3,0-0.6,0-0.9,0c-0.2,0-0.4-0.1-0.6-0.1
	c-0.2,0-0.4-0.2-0.6-0.1c-0.2,0.1-0.3,0-0.5,0c0,0-0.1,0-0.1,0c0,0,0.1,0.1,0.1,0.1c-0.1,0-0.1,0-0.2,0c0,0-0.1-0.1-0.1-0.1
	c-0.3,0-0.6,0-0.9,0c-0.2,0-0.5,0-0.7,0c-0.3,0-0.7,0-1,0c-0.3,0-0.5,0-0.8,0c-0.1,0-0.1,0-0.2,0c-0.3,0-0.6,0-0.9,0
	c-0.1,0-0.2,0-0.2,0.2c0,0.2-0.2,0.3-0.3,0.2c-0.1-0.1-0.1-0.1-0.2,0c-0.1,0-0.2,0-0.2,0c0,0,0,0,0,0c-0.1,0.1-0.1,0-0.2,0
	c-0.1-0.1-0.3-0.2-0.4-0.2c-0.1,0-0.1,0-0.2-0.1c0,0-0.1-0.1-0.1-0.1c-0.2-0.1-0.4-0.1-0.6-0.2c-0.3,0-0.7,0-1-0.1
	c-0.5,0-0.9,0-1.4,0c-0.5,0-1,0.1-1.5,0.1c-0.3,0-0.7,0-1,0c-0.2,0-0.3,0-0.4,0.3c-0.1,0.2-0.1,0.2-0.2,0c0,0,0-0.1-0.1-0.1
	c0,0-0.1,0.1-0.1,0.1c0,0,0,0,0-0.1c0,0-0.1,0-0.1,0C9.3,1.8,9,2,8.9,2.3c0,0,0,0.1,0,0.1c0,0.1-0.1,0.2-0.1,0.2
	c0,0-0.1,0.1-0.1,0.1C8.5,3,8.3,3.3,8.2,3.5C8,3.8,7.8,4,7.7,4.3c0,0,0,0.1-0.1,0.2C7.5,4.7,7.3,4.9,7.2,5.1c0,0-0.1,0.1-0.1,0.1
	c-0.2,0-0.4,0-0.6,0c0,0-0.1,0-0.1,0C6.2,5.3,6.1,5.4,6,5.4c0,0,0,0,0,0c0,0,0,0,0.1,0C5.7,5.1,5.4,5.2,5.1,5.2
	c-0.3,0-0.6,0.1-0.8,0C4,5.2,3.8,5.1,3.5,5.1c-0.1,0-0.2,0-0.3,0C3,4.8,2.8,5,2.6,5C2.4,5,2.3,5.1,2.2,5.2C2.1,5.2,2,5.3,1.9,5.4
	c0,0.1,0,0.2-0.1,0.3c0,0,0,0.1,0.1,0.1c-0.1,0-0.1,0-0.1,0.1c0,0.1,0,0.1,0,0.2c0,0,0,0.1,0.1,0.1c0.1,0.1,0,0.2-0.1,0.3
	c0,0.3,0,0.5,0.1,0.8c0,0,0,0.1-0.1,0.1c0,0,0,0,0,0c0,0.4,0,0.8,0.1,1.2c0,0,0,0.1,0,0.2c0,0.3,0,0.5,0,0.8c0,0.3,0,0.6,0,0.9
	c0,0.1,0,0.2,0,0.3c0,0.3,0,0.6,0,0.9c0,0.4,0,0.9,0,1.3c0,0.7,0.1,1.4,0.1,2.1c0,0,0,0.1,0,0.1c0,0.1,0,0.2,0,0.3
	c0,0.1,0,0.3,0,0.4c0,0.2,0,0.4,0,0.5c0,0.1,0,0.2,0,0.3c0.1,0.1,0.1,0.2,0,0.3c0,0,0,0.1,0,0.2c0,0.7,0,1.3,0,2c0,0.3,0,0.5,0,0.8
	c0,0.1,0.1,0.2,0.1,0.4c0,0.3,0,0.6,0,0.9c0,0.7,0,1.3,0,2c0,0.1,0,0.2,0.1,0.2c0.1,0.1,0.2,0.3,0.2,0.5c0,0.2,0,0.4-0.1,0.6
	c-0.1,0.2-0.2,0.5-0.1,0.7c0,0,0,0,0,0.1c-0.2,0-0.5,0-0.7,0.1c-0.1,0-0.1,0.1-0.2,0.1c0,0-0.1,0-0.1,0c-0.2,0-0.3-0.1-0.5,0
	c-0.1,0.1-0.2,0.2-0.3,0c0,0.1,0,0.2,0,0.3c-0.1,0.2-0.2,0.3-0.2,0.6c0,0.1,0,0.2-0.1,0.3c0,0.1,0,0.2,0,0.3c0,0.3,0,0.6,0,0.9
	c0,0.1,0,0.2,0,0.4c0,0.1,0,0.3,0,0.4c0,0.6,0,1.2,0,1.7c0,0.5,0,1.1,0.1,1.6c0,0.7,0.1,1.4,0.1,2.1c0,0.4,0,0.8,0,1.3
	c0,1.1,0,2.1,0,3.2c0,0.2,0,0.5,0,0.7c0,0.2,0,0.4,0,0.7c0,0.4,0,0.9,0,1.3c0,0.2,0,0.4,0.1,0.7c-0.1,0.1-0.1,0.2-0.1,0.4
	c0,0.2,0,0.5,0,0.7c0,0.1,0,0.2,0,0.4c0.2-0.1,0.2,0.1,0.2,0.2c0,0.5,0.1,1,0.1,1.5c0,0.2,0,0.4-0.1,0.6c-0.1,0.2-0.1,0.6,0,0.7
	c0.1,0.2,0.1,0.2-0.1,0.3c0,0.1,0.1,0.2,0.1,0.3c0,0.1-0.1,0.2-0.1,0.4c0,0,0.1,0,0.1,0c0.2-0.1,0.2,0,0.3,0.2
	c0,0.2,0.1,0.3,0.2,0.3c0.2,0,0.4,0,0.6-0.1c0.3-0.1,0.6-0.1,0.8-0.2c0.1,0,0.2,0,0.4,0c0.4,0,0.8,0,1.2,0.1c0.1,0,0.3-0.1,0.4,0
	c0.2,0,0.3,0,0.4-0.3c0,0.1,0.1,0.2,0.1,0.3c0.1-0.2,0.2,0.2,0.4,0.1c0-0.2,0-0.3,0.1-0.4c0-0.1,0-0.3,0.1-0.4c0-0.1,0-0.3,0-0.4
	c0-0.2,0-0.5,0-0.7c0-0.4,0-0.8,0-1.2c0-0.1,0-0.3,0-0.4c0.1-0.3,0.1-0.7,0-1c0-0.1,0-0.3-0.2-0.2c0.1-0.1,0.1-0.1,0.1-0.1
	c0-0.2,0-0.4,0-0.6c0.1,0,0.1-0.2,0.1-0.3c0-0.4-0.1-0.7-0.1-1.1c0-0.6,0-1.3,0-1.9c0-0.2,0-0.4,0-0.6c0-0.4-0.1-0.4,0-0.7
	c0,0,0-0.1,0-0.1c-0.1-0.1,0-0.2,0-0.3c0-0.1,0-0.2,0-0.3c0,0,0-0.1,0-0.1c0.1-0.2,0.1-0.4,0.2-0.5c0,0,0-0.2,0.1-0.2
	c0-0.1,0.1-0.2,0.2-0.2c0.1,0,0.1,0,0.2-0.1c-0.1,0-0.1-0.1-0.2-0.1c0.1-0.3,0.2-0.5,0.3-0.8c0,0,0.1-0.1,0.1-0.1c0.1,0,0.2,0,0.3,0
	c0.1,0,0.2,0,0.2,0c0,0.1-0.1,0.1-0.1,0.2c0.1-0.1,0.3-0.2,0.4-0.1c0.1,0,0.2,0,0.4,0c0.3,0,0.6,0,0.9,0c0.1,0,0.1,0.1,0.1,0.2
	c0,0.2,0,0.5,0,0.7c0,0.1,0,0.1,0,0.2c0,0.2,0.1,0.3,0.1,0.5c0,0.5,0,1,0,1.4c0,0.3,0,0.5,0,0.8c0,0.2,0,0.4,0,0.6
	c0,0.2,0,0.5,0,0.7c0,0.2,0,0.5,0,0.7c0,0.1,0,0.2,0,0.2c0,0.1,0.1,0.2,0.1,0.4c0,0,0,0.1,0,0.2c0,0,0.1,0,0.1,0c0.1,0,0.2,0,0.3,0
	c0.3,0,0.7,0.1,1,0.1c0.1,0,0.3,0,0.4,0c0.1,0,0.2,0.1,0.3,0.1c0.2,0,0.5,0,0.7,0c0,0,0,0,0-0.1c0,0-0.1,0-0.1,0
	c-0.1,0-0.2-0.1-0.2-0.3c0.1-0.4,0.1-0.8,0.1-1.2c0-0.3,0-0.7,0-1c0-0.3,0.1-0.6,0-1c0-0.1,0-0.3,0-0.5c0-0.3,0-0.7,0.1-1
	c0-0.1,0-0.3,0-0.4c0-0.3,0.1-0.7,0.1-1c0-0.2,0-0.4,0-0.6c0-0.1,0-0.1,0-0.2c0-0.1,0-0.1,0-0.3c-0.1-0.1-0.1-0.3,0-0.5
	c0,0,0-0.1-0.1-0.1c0.1,0,0.1-0.1,0.1-0.1c0-0.3,0.2-0.3,0.3-0.5c0.1-0.1,0.1-0.1,0.1,0c0.1,0,0.1-0.1,0.2-0.1c0.1,0,0.2,0,0.3,0
	c0.1,0,0.1,0,0.2,0c0.1,0.1,0.3,0,0.4,0c0.1,0,0.2,0.1,0.3,0.1c0.3,0,0.6-0.1,0.9,0.1c0,0,0.1,0,0.2,0c0.2,0,0.3,0,0.5,0
	c0.3,0,0.7,0.1,1,0.1c0-0.1,0.1-0.2,0.2-0.1c0,0,0.1,0.1,0.1,0.1c0.1-0.1,0.2-0.1,0.2,0c0.1,0,0.2,0.1,0.3,0.1c0.1,0,0.2,0,0.2,0
	c0.4,0.1,0.8,0,1.2,0.1c0,0,0,0,0,0c0.1,0,0.3,0,0.4,0c0.2,0,0.3,0.1,0.5,0.1c0,0,0-0.1-0.1-0.1c0.1,0,0.1,0,0.2,0
	c0.2,0,0.3,0,0.5,0c0.1,0,0.2-0.1,0.2,0c0.1,0.1,0.3,0,0.4,0.1c0.1,0,0.1,0,0.2,0c0.1-0.2,0.2-0.1,0.3-0.1c0.1,0,0.2,0,0.3,0
	c0.1,0,0.3-0.1,0.4-0.2c0,0,0.1,0,0.1,0c0.2,0.2,0.4,0.2,0.6,0.3c0.1,0,0.2,0,0.3,0.2c0,0.1,0.1,0.2,0.2-0.1c0,0.1,0,0.2,0,0.3
	c0,0.1-0.1,0.3-0.1,0.4c0,0.2,0,0.4,0,0.6c0.1,0.4,0.1,0.8,0.1,1.3c0,0.1,0,0.1,0,0.2c-0.1,0.4-0.1,0.9-0.1,1.4c0,0.5,0.1,1,0,1.5
	c0,0,0.1-0.1,0.1-0.1c-0.1,0.7-0.1,0.8,0,1C23,40.5,23,40.7,23,41c0,0,0,0,0,0c0,0.2,0,0.3,0,0.4c0,0-0.1,0.1-0.1,0.1
	c0,0.3,0.1,0.5,0.1,0.8c0,0.2,0,0.4,0,0.7c0,0.1,0,0.2,0.1,0.3c-0.1,0.1-0.1,0.9-0.1,1.5c0,0,0,0,0,0c0,0,0-0.1,0-0.1
	c0.1,0.1,0.1,0.1,0.2,0.2c0,0-0.1,0.1-0.1,0.1C23,45,23,45.1,23.1,45.3c0.1,0.3,0.1,0.6,0.1,0.9c0,0.2,0,0.3,0,0.5
	c0,0.3,0.1,0.5,0.3,0.5c0,0.2,0.1,0.3,0.2,0.4c0.1,0.1,0.2,0.1,0.3,0.1c0,0,0-0.2,0.1,0c0,0,0.1,0,0.1,0c0.2,0,0.3,0.1,0.5,0.1
	c0,0.1,0.1,0.2,0.2,0.1c0,0,0.1,0,0.1,0c0,0,0.1,0.1,0.1,0.1c0-0.2,0-0.3,0-0.4c0-0.1,0-0.2,0.1-0.2c0.1,0,0.3,0,0.4,0
	c0.1,0,0.2,0.1,0.2,0.3c0,0.1,0.1,0.3,0.1,0.4c0,0,0,0,0,0c0-0.1,0-0.2,0.1-0.3c0.1,0.2,0.1,0.3,0.2,0.4c0.1-0.2,0.1-0.4,0.2-0.6
	c0,0,0-0.1,0-0.2c0-0.4,0-0.7,0-1.1c0-0.9,0-1.8-0.1-2.7c0-0.2-0.1-0.3-0.1-0.5c0-0.1,0-0.3,0-0.4c0,0,0,0,0,0c0,0.1,0,0.1,0,0.2
	c0-0.8,0-1.6,0-2.4c0-0.3,0-0.7,0-1c0-0.7,0-1.4,0-2c0-0.3,0-0.6-0.1-0.9c0-0.1,0-0.2,0-0.3c0-0.1,0.1-0.2,0.1-0.3
	c0.1,0,0.2-0.1,0.3,0c0.1,0.1,0.1,0.2,0.1,0.4c0-0.1,0.1-0.2,0.1-0.3c0,0.1,0,0.1,0.1,0.2c0-0.1,0-0.2,0.1-0.1c0-0.1,0-0.2,0-0.3
	c1-0.1,2-0.2,3-0.3c0,0.2,0.1,0.4,0.1,0.6c0,0,0,0,0,0c0,0,0-0.1-0.1-0.1c0,0,0,0-0.1,0c0,0.4,0,0.7,0.1,1.1c0,0,0,0,0.1,0
	c0-0.2,0-0.3,0-0.5c0,0,0,0,0,0c0,0.2,0.1,0.5,0,0.6c-0.1,0.2-0.1,0.4,0,0.6c0,0.1,0,0.2,0,0.3c0,0,0,0.1,0,0.1c0,0,0,0.1,0,0.1
	c-0.1,0.3,0,0.5-0.1,0.8c-0.1,0.2,0,0.5,0,0.7c0,0.7,0.1,1.4,0.1,2c0,0.2,0,0.5,0,0.7c0,0.4,0,0.8,0,1.3c0,0.2,0,0.4,0,0.6
	c0,0.3,0,0.6,0,0.8c0,0.2-0.1,0.4,0,0.5c0,0.2,0,0.4,0,0.5c0,0.3,0,0.6,0.1,0.9c0.1,0.3,0.1,0.6,0.1,0.9c0,0.2,0,0.3,0.2,0.3
	c0.1,0.4,0.2,0.7,0.5,0.9c0-0.1,0-0.1,0-0.2c0,0.1,0,0.1,0.1,0.2c0.1-0.2,0.1-0.5,0.1-0.7c0-0.5-0.1-1-0.1-1.5c0-0.5,0-0.9-0.1-1.4
	c0-0.5,0-1.1,0-1.6c0,0,0-0.1,0-0.1c0,0,0-0.1-0.1-0.1c0,0,0,0,0,0c0,0,0,0,0.1,0c0-0.2,0-0.3,0-0.4c0-0.2,0-0.5,0-0.7
	c0-0.2,0-0.3,0-0.5c0-0.4,0-0.8,0-1.2c0-0.6,0-1.2-0.1-1.8c0-0.3,0-0.6-0.1-0.9c0,0,0-0.1,0-0.1c0-0.1,0-0.1,0-0.2
	c0-0.1,0-0.1,0-0.2c0-0.2,0-0.4,0-0.6c0-0.5,0-0.9,0-1.4c0-0.6-0.1-1.2-0.1-1.9c0-0.5,0-1-0.1-1.4c-0.1-0.4,0-0.8,0-1.2
	c0-0.6,0-1.1,0-1.7c0-0.5,0-1,0-1.5c0-0.7,0-1.3,0-2c0-0.1-0.1-0.3-0.1-0.4c0-0.3,0-0.7,0-1c0-0.4,0-0.7,0-1.1
	c0-1.1-0.1-2.2-0.1-3.4c0-1.2-0.1-2.3-0.1-3.4c0-0.6,0-1.3-0.1-1.9c0-0.3,0-0.5-0.1-0.8c-0.1-0.2-0.1-0.4-0.1-0.7c0-0.1,0-0.1,0-0.2
	c0-0.2,0-0.4-0.1-0.5c0.1,0,0.1,0,0.2,0c0-0.1,0-0.2-0.1-0.3c0,0.1,0,0.1,0,0.2c-0.1-0.2-0.1-0.2,0.1-0.3c0-0.2,0-0.4,0-0.6
	c0-0.1,0-0.2,0.1-0.3c0.2-0.4,0.5-0.8,0.7-1.2c0.3-0.5,0.6-0.9,0.9-1.3c0.3-0.5,0.6-1,0.9-1.5c0,0,0.1,0,0.1-0.1c0,0,0,0.1,0,0.1
	c0.1,0.5,0.1,1.1,0.1,1.6c0,0.5,0,1,0.1,1.5c0.1,0.9,0.1,1.7,0.2,2.6c0,0.7,0.1,1.4,0.1,2.1c0,0.5,0.1,1.1,0,1.6c0,0,0,0,0,0.1
	c0,0.2,0.1,0.5,0,0.7c-0.1,0.2,0,0.4,0,0.6c0,0.5,0,0.9,0.1,1.4c0,0.2,0,0.5,0,0.7c0,0.2,0,0.4,0,0.7c0,0.4,0.1,0.7,0,1.1
	c0,0,0,0.1,0,0.1c0.1,0.2,0,0.3,0,0.5c0,0.4,0,0.7,0,1.1c0,0.8,0,1.5,0,2.3c0,0.7,0,1.5,0,2.3c0,0.3,0,0.6,0,1c0,0.2,0,0.5,0,0.8
	c0,0.4,0.1,0.9,0,1.3c0,0,0,0.1,0,0.1c0,0.2,0,0.5,0.1,0.7c0,0.3,0,0.6,0,1c0,0.2,0,0.4,0,0.6c0,0.1,0,0.3,0,0.5c0,0,0,0.1,0,0.1
	c0,0.2,0,0.3,0,0.5c0,0.3,0.1,0.6,0.1,0.9c0,0.1,0,0.3,0,0.4c0,0.3,0,0.6,0,0.9c0,0.4,0,0.8,0,1.2c0,0.2,0.1,0.3,0.1,0.5
	c0,0.2,0,0.4,0,0.6c0.1,0.2,0,0.4,0,0.6c0,0.4,0,0.7,0,1.1c0,0.3,0,0.7,0,1c0,0.2,0,0.4,0,0.7c0,0.1,0,0.2,0,0.4c0,0.3,0,0.6,0,1
	c0,0.3,0,0.6,0,1c0,0.2,0,0.4,0,0.7c0,0.1,0,0.1,0,0.1c0,0.2,0,0.3,0,0.4c0.1,0.3,0,0.6,0.1,0.8c0.1,0.2,0,0.5,0.2,0.7
	c0.1,0.1,0.2,0.3,0.1,0.5c0,0.1,0,0.2,0,0.3c0,0,0,0,0,0c0-0.1,0-0.2,0-0.2c0.1,0,0.1,0,0.2-0.1c0-0.1,0-0.2,0-0.3c0,0,0,0,0,0
	c0,0.1,0,0.1,0,0.2c0-0.1,0-0.3,0-0.4c0.1-0.2,0.1-0.4,0.1-0.6c0-0.2,0-0.3,0.1-0.3c0-0.4,0-0.7,0-1.1c0,0,0.1,0,0.1,0
	c0-0.2-0.1-0.4-0.1-0.5c0,0,0,0.1-0.1,0.1c0-0.3,0-0.5,0-0.8c0-0.4,0-0.8,0-1.1c0-0.5,0-1,0-1.5c0-0.7,0-1.4,0-2c0,0,0-0.1,0-0.1
	c0-0.5,0-1,0-1.5c0-0.5-0.1-1.1,0-1.6c0-0.3,0.1-0.3,0.2-0.2c0.4,0.2,0.7,0.2,1.1,0.3c0.4,0,0.7,0,1.1,0c0.2,0,0.5,0,0.7,0
	c0.2,0,0.4,0,0.6,0c0.2,0,0.4,0.2,0.6,0.2c0,0,0.1,0,0.1,0c0-0.2,0.1-0.1,0.2-0.1c0,0.4,0.1,0.8,0.1,1.3c0,0.5,0,1.1,0,1.6
	c0,0.5,0,1,0,1.5c0,0.2,0,0.4,0,0.7c0,0,0,0.1,0,0.1c-0.1,0-0.1,0.1-0.1,0.2c0,0.2,0.1,0.3,0.1,0.5c0,0,0,0.1,0,0.2
	c-0.1,0.1,0,0.2,0,0.3c0,0.2,0.1,0.4,0.1,0.7c0,0.3,0,0.6,0,0.8c0,0.1,0,0.2,0,0.2c0,0.2,0,0.3,0,0.5c0,0.3,0,0.7,0,1
	c-0.1,0.1-0.2,0.2-0.4,0.3c0,0.1,0,0.2-0.2,0.3c0.1,0,0.2,0.1,0.3,0.1c0,0.1-0.1,0.1-0.1,0.2c0,0.1,0,0.2,0.2,0.2
	c0.1,0,0.2,0,0.4,0.1c0.2,0,0.2,0,0.2,0.3c0.1-0.1,0.1-0.1,0.2-0.2c0,0.1,0,0.2,0,0.3c0,0,0.1-0.1,0.1-0.1c0,0-0.1-0.1-0.1-0.1
	c0,0,0.1-0.1,0.1-0.1c0-0.1,0.1-0.1,0.1-0.2c0.4,0,0.7-0.1,1.1-0.1c0.5,0,1,0.1,1.5,0.2c0.7,0.2,1.5,0.3,2.3,0.3
	c0.7,0,1.3,0.1,2,0.1c0.4,0,0.8-0.1,1.1-0.1c0.1,0,0.1,0,0.2,0c0.1-0.1,0.2-0.3,0.2-0.5c0,0.1,0,0.2,0,0.3c0,0.1,0.1,0.1,0.2,0.1
	c0,0,0-0.1,0.1-0.1c0,0.1,0,0.1,0,0.1c0-0.1,0.1-0.2,0.1-0.3c0-0.4,0-0.8,0-1.1C50,47.1,50,46.9,50,46.8z M8.7,16.7
	c-0.2,0.4-0.3,0.8-0.5,1.2C8.2,18,8.2,18,8.1,18c0,0,0,0.1,0,0.1c0,0.1,0,0.1,0,0.2c-0.2,0.4-0.3,0.8-0.5,1.3c0-0.1,0-0.1,0-0.1
	c0,0,0,0,0,0c-0.1,0.4-0.3,0.8-0.4,1.1c-0.1,0.3-0.2,0.6-0.3,1c0,0.1-0.1,0.2-0.1,0.3c-0.1,0.3-0.2,0.5-0.3,0.8
	c-0.1,0.2-0.1,0.4-0.2,0.6C6,23.5,6,23.7,5.8,23.9c0-0.1,0-0.2,0-0.3c-0.1,0-0.3-0.2-0.3-0.4c0-0.1-0.1-0.2-0.1-0.3
	c0-0.4,0-0.8-0.1-1.2c0-0.1,0-0.2,0-0.3c0-0.1-0.1-0.3,0-0.4c0-0.1,0-0.3,0-0.4c0-0.5,0-1.1,0-1.6c0-0.2-0.1-0.4-0.1-0.6
	c0,0,0,0,0-0.1c0-0.2,0-0.4,0-0.5c0-0.1,0-0.3,0-0.4c0-0.7,0-1.5-0.1-2.2c0-0.2-0.1-0.4-0.1-0.6c0-0.2,0-0.4,0-0.7
	c0-0.4,0-0.7,0-1.1c0-0.5,0-0.9,0-1.4c0-0.2,0-0.4,0-0.6c0-0.1,0-0.1,0-0.2c0-0.2,0-0.4,0-0.7C4.9,9.7,5,9.4,5,9.2
	C5,9,5,8.9,4.8,8.9C4.9,8.8,5,8.7,5,8.7c0-0.1,0-0.1,0-0.2c0.1,0,0.2,0,0.3,0c0.5,0,0.9,0,1.4,0c0.1,0,0.3,0,0.4,0
	c0.2,0,0.3,0,0.5,0c0.1,0,0.1-0.1,0.1,0.1c0,0,0.1,0,0.1,0c0,0,0-0.1,0-0.1c0.2,0.2,0.5,0,0.7,0.4c0,0.1,0,0.2,0.1,0.4
	c0.1,0.1,0,0.3,0,0.4c0,0,0,0,0,0c0.1,0.8-0.1,1.6,0.1,2.4c0,0-0.1-0.1-0.1-0.1c0,0.1,0,0.2,0.1,0.4c-0.1,0.1-0.1,0.2,0,0.4
	c0,0,0,0.1,0,0.1c0,0,0,0.1,0,0.1c0,0-0.1,0-0.1,0c0,0.2,0.1,0.4,0.1,0.5c0,0.2,0,0.3,0,0.4c0,0,0,0.1,0,0.1c0,0.4,0,0.7-0.1,1.1
	c0,0.2,0,0.4,0,0.5c0,0.3,0.1,0.5,0.1,0.8C8.8,16.5,8.8,16.6,8.7,16.7z M43.1,35.5c-0.1,0-0.2,0.1-0.3,0.1c-0.1,0-0.2,0-0.2-0.1
	c0-0.1-0.1-0.1-0.1,0c0,0-0.1,0-0.2,0c0,0-0.1-0.1-0.1-0.1c-0.2-0.2-0.3-0.2-0.5,0c0.2,0.1,0,0.4,0.1,0.6c-0.1,0-0.2-0.1-0.1-0.2
	c0.1-0.2,0-0.2-0.1-0.2c-0.2,0-0.5-0.1-0.7-0.2c-0.1,0-0.2,0-0.3,0c-0.2,0-0.4,0.1-0.6,0.2c0,0-0.1,0-0.2,0c0-0.1,0-0.2,0-0.3
	c-0.1-0.1-0.1-0.1-0.2-0.2c0,0,0,0-0.1,0.1c0-0.1,0-0.2-0.1-0.3c0,0,0.1,0,0.2,0.1c-0.1-0.2-0.1-0.4-0.2-0.5c0,0,0,0,0,0
	c0-0.1,0-0.2-0.1-0.4c0-0.1,0-0.1,0-0.2c0-0.2,0.1-0.3,0.1-0.5c0-0.1,0.1-0.1,0.1-0.2c0-0.1,0.1-0.1,0.1-0.2c0,0,0,0,0,0
	c0-0.1,0-0.2,0-0.3c0-0.1,0-0.2,0-0.3c0-0.1,0-0.2,0.1-0.3c0.2-0.1,0.3-0.1,0.4,0.2c0.1,0.2,0.2,0.3,0.3,0.4c0,0,0,0,0-0.1
	c-0.1-0.2-0.2-0.3-0.4-0.5c-0.1-0.1-0.2-0.2-0.3-0.4c-0.1-0.1-0.1-0.2,0-0.4c-0.2,0-0.3-0.1-0.2-0.4c0-0.1,0-0.2-0.2-0.1
	c0-0.2,0-0.5,0-0.7c0-0.2,0-0.4,0-0.6c0-0.1-0.1-0.1-0.1-0.2c0.1-0.3,0.2-0.2,0.4-0.2c0.1,0,0.1-0.1,0.2-0.1c0.1,0,0.1,0,0.2,0
	c0.1,0,0.1,0,0.2,0c0.1,0,0.2-0.1,0.2-0.1c0.2,0,0.4-0.1,0.6-0.1c0.2,0,0.3,0,0.5,0.1c0.1,0,0.2,0,0.3,0c0,0.1,0,0.2,0,0.2
	c0.1,0,0.1,0,0.2,0.1c0.2,0,0.3,0.1,0.5,0.1c0.1,0,0.1,0,0.2,0c0.1,0,0.2,0,0.2,0c0.3,0,0.5,0,0.8,0c0,0,0.1,0,0.1,0.1
	c0,0.3,0,0.3,0.2,0.3c0,0,0,0,0,0c0-0.3,0.1-0.3,0.3-0.3c0.1,0,0.3,0.1,0.4-0.1c0,0,0,0,0,0c0.2,0.1,0.3-0.1,0.5-0.2
	c0.1-0.1,0.1,0,0.2,0c0,0.1,0,0.2,0,0.3c0,0,0,0,0,0c0-0.1,0.1-0.1,0.1-0.2c0.1,0.1,0.3,0.2,0.4,0.3c0-0.1,0-0.1-0.1-0.2
	c0.1,0,0.3,0,0.3,0.3c0-0.1,0-0.2,0.1-0.2c0.1,0,0.2,0,0.2,0.2c0,0,0.1,0,0.1,0c0.1-0.1,0.3,0,0.3,0.1c0,0.1,0,0.7-0.1,0.8
	c-0.1,0.1-0.1,0.2-0.2,0.3c0,0,0.1,0.1,0.1,0.1c-0.1,0-0.1,0-0.1,0.1c0,0,0.1,0.1,0.1,0.1c0,0-0.1,0-0.1,0c0,0.3,0,0.5,0,0.7
	c0,0.3,0,0.6,0,0.9c0,0.1,0,0.2,0,0.3c-0.1,0-0.1-0.1-0.2-0.1c0.1-0.1,0.1-0.1,0.2-0.2c-0.1-0.1-0.1-0.1-0.2-0.1c0,0-0.1,0-0.1,0
	c0,0.1,0,0.3,0.1,0.3c0.1,0.1,0.1,0.4,0.1,0.6c0,0.3-0.1,0.7,0.1,1c0,0.1,0,0.2,0,0.2c-0.1,0.1,0,0.2,0.1,0.3c0-0.1,0-0.1,0-0.2
	c0,0.1,0.1,0.2,0.1,0.3c-0.1,0.2,0,0.4,0,0.6c0,0.1,0,0.1,0,0.3c-0.1,0-0.2,0.1-0.4,0.1c0,0-0.1,0-0.1,0c0,0,0.1-0.1,0.1-0.1
	c0,0,0,0,0-0.1c-0.1-0.1-0.2,0.2-0.2-0.1c0-0.3,0-0.4,0.1-0.4c0-0.2,0-0.3,0-0.5c-0.1,0-0.1-0.1-0.2-0.1c-0.1,0.1-0.1,0.2-0.2,0
	c0,0,0-0.1,0-0.1c0-0.2,0-0.3-0.2-0.3c0,0-0.1,0-0.1,0c0.1,0.3,0.3,0.6,0.3,0.9c0,0,0,0-0.1,0c-0.1-0.2-0.1-0.4-0.2-0.6c0,0,0,0,0,0
	c0,0.1,0,0.2,0,0.2c0,0.1,0,0.1-0.1,0.2c0-0.1-0.1-0.1-0.1-0.2c0-0.3,0-0.3-0.2-0.3c0.2,0.3,0.1,0.4-0.1,0.5c0.1,0,0.1,0.1,0.1,0.1
	c0,0,0.1,0,0.1,0c0,0,0,0,0,0.1c0,0-0.1,0.1-0.1,0.1c-0.1-0.1-0.1-0.1-0.2-0.2c0,0-0.1-0.2-0.1-0.2c-0.1,0-0.2,0-0.3,0.1
	c0,0-0.1,0-0.1,0c-0.1,0-0.1,0-0.1,0.2c0,0,0,0.1,0,0.1c0,0-0.1,0-0.1,0c-0.1,0-0.2-0.1-0.4-0.1l0,0c0,0,0,0,0,0
	c0.1,0.1,0,0.2-0.1,0.3c0-0.1,0-0.2,0-0.2c0,0,0.1,0,0.1-0.1c0,0,0,0,0,0l0,0c-0.1-0.1-0.1-0.1-0.2,0c-0.1,0.1-0.1,0.2-0.2,0.3
	C43.5,35.8,43.3,35.8,43.1,35.5C43.1,35.5,43.1,35.5,43.1,35.5z M47.1,45.2C47.1,45.2,47.1,45.3,47.1,45.2
	C47.1,45.3,47.1,45.3,47.1,45.2c0,0,0-0.1,0-0.2c0,0,0,0,0,0c0,0.1-0.1,0.1,0,0.2c0.1,0.2,0,0.3,0,0.5c0,0.1-0.1,0.1-0.1,0.2
	c-0.1-0.1-0.2,0-0.2-0.1c0,0-0.1,0-0.1,0c-0.1,0.1-0.1,0.1-0.2,0.1c-0.3,0-0.6,0.1-0.9,0.1c-0.1,0-0.2,0-0.3,0c-0.1,0-0.3,0-0.4,0
	c-0.1,0-0.1,0-0.2,0c-0.3,0-0.5,0-0.8,0c-0.1,0-0.3,0-0.4,0c0,0-0.1-0.1-0.1-0.1c0,0,0-0.1,0-0.1c0-0.1,0-0.1,0-0.2
	c0-0.4,0-0.8,0-1.1c0-0.4,0-0.9,0-1.3c0-0.3,0-0.6,0-0.9c0-0.1,0-0.2,0.1-0.2c0.7-0.1,1.5-0.2,2.2-0.3c0.2,0,0.4-0.1,0.6-0.2
	c0.1,0,0.1,0,0.2,0c0.1,0.1,0.2,0.1,0.3,0.2c0.1,0,0.2,0.2,0.3,0.4c0.2,0.4,0.1,0.9,0.2,1.3c0,0.2,0.1,0.5,0.1,0.7
	C47.2,44.5,47.1,44.8,47.1,45.2z"/>
</svg>
