<?xml version="1.0" encoding="utf-8"?>
<!-- Generator: Adobe Illustrator 22.0.0, SVG Export Plug-In . SVG Version: 6.00 Build 0)  -->
<svg version="1.1" id="Layer_1" xmlns="http://www.w3.org/2000/svg" xmlns:xlink="http://www.w3.org/1999/xlink" x="0px" y="0px"
	 viewBox="0 0 50 50" style="enable-background:new 0 0 50 50;" xml:space="preserve">
<style type="text/css">
	.st0{stroke:#000000;stroke-width:0.1;stroke-miterlimit:10;}
</style>
<path class="st0" d="M25.3,46.7c0,0.9-0.1,1.8-0.1,2.7c0,0.1,0,0.2,0,0.4c-0.6,0-1.1,0-1.7,0c-7.3,0-14.5,0-21.8,0
	c-0.1,0-0.2,0-0.3,0c-0.9,0-1.1-0.2-1.1-1c0-6.2-0.1-12.5-0.1-18.7C0.1,26,0,22,0,17.9C0,17,0,17,0.8,17c0.7,0,1.4,0,2.1,0
	c-0.1-0.5-0.1-0.8-0.1-1.1c0-0.4,0-0.8-0.8-0.6c0.5-0.4,0.9-0.7,0.7-1.1C2.8,13.8,3,13.7,3,13.5c0-2.4,0-4.7-0.1-7.1
	c0-0.9,0-1.8,0-2.6c0-0.2-0.1-0.5-0.3-0.6C2,2.4,1.3,1.7,0.6,1C0.5,0.8,0.3,0.7,0.2,0.6c0,0,0.1-0.1,0.1-0.1
	c0.2,0.1,0.3,0.2,0.5,0.4C1.3,1.4,1.9,2,2.5,2.6C2.8,3,3.2,3.2,3.9,3.2c1.1-0.1,2.2,0,3.3,0C8.1,3.2,9,3.1,9.9,3
	c0.6,0,1.2,0.1,1.8,0.1c1,0,1.9,0,2.9,0c0.5,0,1-0.1,1.5-0.1c0.2,0,0.3,0,0.5,0c0.2,0,0.4,0.1,0.6,0.1c0-1,0-2,0-3
	c0.3,0,0.6,0,0.9,0c8.3,0,16.6,0,24.8,0c1.9,0,3.9,0,5.8,0c1,0,1,0,1,1c0,3.7,0,7.4,0,11.1c0,5.3,0.1,10.5,0.2,15.8
	c0,0.9,0,0.9-0.9,0.9c-0.7,0-1.5,0-2.2,0c0,6,0,11.8,0,17.8C39.7,46.7,32.5,46.7,25.3,46.7c0-0.5,0-0.9,0-1.4c0-0.4-0.1-0.6-0.5-0.6
	c-1.1,0-2.3,0-3.4,0c-1,0-2,0.1-3.1,0.1c-1.5,0-3,0-4.5,0c-0.2,0-0.4,0-0.5,0c0-1.1,0-2.1,0-3.1c0-0.6,0-0.7-0.7-0.7
	c-2.2,0-4.5,0-6.7,0c-0.3,0-0.5-0.1-0.5-0.5c0-2.4,0-4.9,0-7.3c0-2,0.1-4,0.1-6c0-2.3,0.1-4.6,0.1-6.9c0-1,0-1.9,0.1-2.9
	c0-0.3-0.1-0.5-0.5-0.5c-0.5,0-0.9,0.1-1.4,0.1c-0.6,0-0.7,0.2-0.7,0.7c0,2.6,0.1,5.2,0.1,7.8c0,2.6,0.1,5.2,0.1,7.7
	c0,3.8,0,7.6,0,11.4c0,0.2,0,0.4,0.1,0.5c0.3,0.4,0.2,0.7-0.1,0.9c0,0.4,0.2,0.5,0.6,0.5c0.6,0,1.1,0,1.7,0c3.8,0,7.5,0,11.3,0
	C19.7,46.6,22.5,46.7,25.3,46.7z M46.7,3.3c-0.3,0-0.5,0-0.7,0c-9,0-18,0-27,0c-1.2,0-1.1,0-1.2,1.2c0,0.4,0.1,0.5,0.4,0.5
	c1,0,1.9,0.1,2.9,0.1c0.5,0,0.7,0.2,0.6,0.7c0,1.2,0,2.3,0,3.5c0,1.8-0.1,3.5-0.1,5.3c0,0.8,0,1.6,0,2.5c1,0,1.8,0,2.7,0
	c1.1,0,1.1,0,1.1-1.1c0-0.1,0-0.1,0-0.2c0-2.1,0.1-4.2,0.1-6.3c0-0.5,0.2-0.6,0.6-0.6c1,0,2.1,0.1,3.1,0.1c0.3,0,0.4,0.2,0.4,0.4
	c0,1.9,0,3.7,0,5.6c0,0.7,0,1.4,0,2c-1.4,0-2.7,0-4,0c0,0.9,0,1.9,0,2.8c0,0.9,0,1-0.9,1c-0.4,0-0.9,0-1.3,0.1
	c-1.7,0.2-3.4,0.2-5.2,0c-0.3,0-0.6,0-0.6-0.4c0-0.6,0-1.1,0-1.7c0-2,0.1-4.1,0.1-6.1c0-2.4-0.1-4.8-0.1-7.2c0-0.5-0.2-0.6-0.6-0.6
	c-1.9,0-3.9,0-5.8,0c-1.6,0-3.2,0-4.8,0C5.8,5,5.7,5.1,5.7,5.8c0,1.3,0,2.5,0,3.8c0,1.4,0.1,2.7,0.1,4.1c0,1,0,1.9,0,2.9
	c0,0.1,0.2,0.4,0.3,0.4c0.7,0,1.4,0,2.1,0c0.5,0,0.9,0,1.3,0c0,6.7,0,13.3,0,19.8c1,0.1,2,0.1,3,0.2c0.5,0,0.7,0.2,0.7,0.7
	c0,1,0,1.9,0,2.9c0,0.3,0.1,0.4,0.4,0.4c1.5,0,3.1,0.1,4.6,0.1c1.4,0,2.7,0,4.1,0c1,0,2,0,3,0c0,1.1,0,2.3,0,3.4
	c0,0.4,0.2,0.5,0.6,0.5c0.8,0,1.6,0,2.4,0c1,0,1.9,0.1,2.9,0.1c1,0,2,0,2.9,0c0.7,0,1.5,0.1,2.2,0.1c0.3,0,0.7-0.1,1-0.1
	c0.3,0,0.5,0.2,0.8,0.2c1.2,0,2.4,0,3.5-0.1c1,0,2,0,3.1,0c0.4,0,0.6-0.2,0.6-0.6c0-1.2,0.1-2.4,0.1-3.6c0-1.4-0.1-2.9-0.1-4.3
	c0-2.2,0.1-4.4,0.1-6.6c0-0.8-0.1-0.8-0.8-0.8c-0.9,0-1.7,0-2.6,0c-0.3,0-0.5-0.1-0.5-0.5c0-0.5,0-1,0-1.5c0-1.8,0-3.6,0-5.4
	c0-0.5,0.2-0.7,0.8-0.7c0.6,0,1.3,0.1,1.9,0.1c0.4,0,0.8-0.1,1.3-0.1c0,2.7-0.1,5.3,0.1,8c0.5,0,0.9-0.1,1.2-0.1
	C46.7,20.4,46.7,11.9,46.7,3.3z"/>
</svg>
