<?xml version="1.0" encoding="utf-8"?>
<!-- Generator: Adobe Illustrator 22.0.0, SVG Export Plug-In . SVG Version: 6.00 Build 0)  -->
<svg version="1.1" id="Layer_1" xmlns="http://www.w3.org/2000/svg" xmlns:xlink="http://www.w3.org/1999/xlink" x="0px" y="0px"
	 viewBox="0 0 600 600" style="enable-background:new 0 0 600 600;" xml:space="preserve">
<style type="text/css">
	.st0{stroke:#FF0000;stroke-miterlimit:10;}
</style>
<path class="st0" d="M304.4,499.8c-0.4,8.4-0.9,16.9-1.3,25.3c-0.1,1.1-0.2,2.2-0.3,3.8c-5.3,0-10.5,0-15.6,0
	c-67.2,0-134.3,0-201.5,0c-1,0-2,0-3,0c-7.9-0.2-9.9-2.2-9.9-9.7c-0.4-57.6-0.9-115.3-1.3-172.9c-0.3-37.7-0.6-75.3-0.8-113
	c-0.1-8.5-0.1-8.4,7.6-8.3c6.6,0.1,13.1,0,19.1,0c-0.5-4.4-1-7.5-1.1-10.5c-0.1-3.8,0-7.4-7.1-5.9c4.4-4.1,8.3-6.6,6.1-10
	c1.4-2.7,3.1-4.3,3.1-6c0-21.8-0.3-43.5-0.5-65.3c-0.1-8.1,0.2-16.2-0.1-24.2c-0.1-2-1-4.5-2.4-6C89.2,90.3,82.6,83.7,76.1,77
	c-1.2-1.3-2.4-2.6-3.7-3.9c0.3-0.3,0.5-0.6,0.8-1c1.5,1.2,3.2,2.2,4.6,3.6c5.3,5.3,10.6,10.6,15.7,16.1c3.5,3.8,6.9,5.9,12.8,5.4
	c10-0.8,20.2,0.3,30.3,0.1c8.5-0.1,16.9-1,25.4-1.2c5.6-0.1,11.2,0.7,16.8,0.9c9,0.2,18,0.4,26.9,0.3c4.8-0.1,9.5-0.8,14.3-1.2
	c1.6-0.1,3.2,0.1,4.8,0.3c2,0.3,4,0.7,6,1.1c0-9.5,0-18.2,0-27.8c2.5,0,5.2,0,8,0c76.5,0,153,0.1,229.4,0.1c17.8,0,35.6-0.1,53.5,0
	c9.2,0,9.2,0.1,9.2,9c0.1,34.1,0.1,68.3,0.4,102.4c0.4,48.6,1,97.2,1.4,145.9c0.1,8.5,0.1,8.5-8.3,8.5c-6.8,0-13.6,0-20.4,0
	c0,55.1,0,109.5,0,164.2c-66.4,0-133.2,0-199.9,0c0-4.2-0.1-8.5,0.1-12.7c0.2-3.4-0.6-5.3-4.6-5.3c-10.6,0.1-21.2-0.3-31.8-0.2
	c-9.5,0.1-18.9,0.8-28.4,0.8c-13.9,0.1-27.9-0.2-41.8-0.3c-1.8,0-3.5-0.2-4.9-0.3c0-9.8-0.1-19.1,0-28.3c0.1-6-0.4-6.6-6.3-6.6
	c-20.6,0-41.3-0.1-61.9-0.1c-3.1,0-4.6-1-4.6-4.2c0.1-22.4,0-44.9,0.2-67.3c0.2-18.4,0.9-36.8,1.3-55.2c0.4-21.2,0.7-42.5,1-63.7
	c0.1-8.9,0.4-17.8,0.5-26.8c0-3.1-1.3-4.5-4.7-4.2c-4.3,0.4-8.7,1-12.9,0.6c-5.1-0.4-6.3,1.6-6.3,6.3c0.4,23.9,0.6,47.9,0.9,71.8
	c0.3,23.8,0.7,47.6,0.9,71.4c0.2,35.2,0.2,70.3,0.4,105.5c0,1.5,0.2,3.4,1.1,4.6c2.5,3.5,2.3,6.2-1.1,8.5c0.1,3.5,1.8,5,5.3,4.8
	c5.1-0.2,10.3,0.1,15.4,0.1c34.8,0,69.6-0.1,104.4,0.1C252.6,499,278.5,499.5,304.4,499.8z M502.3,98.9c-3.1,0-5,0-6.9,0
	c-83.2,0-166.3,0-249.5,0c-10.7,0-10.4,0-11.5,10.7c-0.4,4,0.8,4.6,4.1,4.6c9,0.1,17.9,0.6,26.9,0.5c4.6,0,6.2,1.6,6,6.2
	c-0.4,10.9-0.3,21.7-0.4,32.6c-0.2,16.3-0.6,32.6-0.7,48.9c-0.1,7.5,0.3,15,0.4,23.2c9.1,0,17,0,25,0c10.1,0,10.1-0.1,10-10.4
	c0-0.5,0-1,0-1.5c0.2-19.3,0.7-38.5,0.5-57.8c0-4.5,1.6-5.5,5.4-5.4c9.6,0.4,19.3,0.8,28.9,1c3,0.1,3.5,1.5,3.5,4.1
	c-0.1,17.3-0.1,34.5-0.1,51.8c0,6.4,0,12.8,0,18.7c-13.1,0-25.2,0-37.4,0c0,8.7-0.3,17.4,0.1,26.2c0.3,8.1-0.3,9-8.7,9
	c-4,0-8,0.2-12,0.6c-15.9,1.5-31.7,1.9-47.6,0.4c-2.5-0.2-5.2-0.1-5.1-3.9c0.1-5.2-0.1-10.3,0-15.5c0.3-18.9,1-37.7,1-56.6
	c0-22.3-0.9-44.6-0.6-66.9c0.1-5-1.4-5.7-5.3-5.7c-17.9-0.1-35.9-0.2-53.8-0.2c-14.7,0-29.3,0.2-44,0.4c-6,0.1-6.9,1.4-6.8,7.5
	c0.1,11.6-0.2,23.2-0.1,34.8c0.2,12.6,0.8,25.2,1,37.8c0.1,8.8-0.1,17.6,0,26.4c0,1.2,1.6,3.3,2.5,3.3c6.4,0.2,12.9,0,19.3,0
	c4.4,0,8.7,0,12.4,0c0,61.8,0,122.6,0,183.4c9.3,0.5,18.7,1.3,28.1,1.4c4.8,0,6.8,1.9,6.8,6.3c0.1,9,0.3,18,0,27
	c-0.1,3.2,0.5,4,3.7,4c14.2,0.2,28.5,0.8,42.7,1c12.5,0.2,25-0.1,37.5-0.1c9.2,0,18.4,0,27.6,0c0,10.1,0.1,20.8-0.1,31.6
	c-0.1,3.9,1.8,5,5.2,4.9c7.3-0.1,14.6-0.3,21.9-0.2c8.8,0.1,17.6,0.6,26.4,0.7c9.1,0.1,18.2-0.3,27.2-0.2c6.8,0,13.5,0.7,20.3,0.7
	c3.1,0,6.3-1.3,9.4-1.3c2.5,0,5,1.4,7.5,1.4c10.9,0,21.8-0.4,32.7-0.5c9.4,0,18.8,0.1,28.2,0.4c4,0.1,5.3-1.4,5.3-5.2
	c0.1-11.1,0.6-22.2,0.6-33.3c0-13.3-0.5-26.6-0.5-39.9c0.1-20.3,0.5-40.6,0.6-60.9c0-7.1-0.6-7.5-7.8-7.4c-8,0.1-16,0.2-24,0.3
	c-3.2,0.1-4.9-0.9-4.6-4.7c0.4-4.6,0.2-9.3,0.2-14c0.1-16.6,0.1-33.2,0.4-49.9c0.1-4.9,2.2-6.5,7.2-6.3c5.8,0.2,11.6,0.7,17.4,0.7
	c3.8,0,7.5-0.5,11.7-0.8c-0.3,24.9-1.1,49.2,0.8,73.8c4.6-0.4,8.2-0.7,11-1C502.3,256.7,502.3,178.2,502.3,98.9z"/>
</svg>
