<?xml version="1.0" encoding="utf-8"?>
<!-- Generator: Adobe Illustrator 22.0.0, SVG Export Plug-In . SVG Version: 6.00 Build 0)  -->
<svg version="1.1" id="Layer_2_1_" xmlns="http://www.w3.org/2000/svg" xmlns:xlink="http://www.w3.org/1999/xlink" x="0px" y="0px"
	 viewBox="0 0 2000 1362" style="enable-background:new 0 0 2000 1362;" xml:space="preserve">
<path d="M1910.7,1238.1c-0.1-8.1-0.5-16.1-0.9-24.2c-0.1-1.4-0.8-2.8-1.1-4.3c-0.5-2.2-1.3-4.4-1.3-6.7c-0.2-16.3-0.1-32.6-0.3-48.9
	c0-1.4-0.8-3.3-1.9-4c-2-1.5-4.5-2.3-6.8-3.4c-3.6,0.5-7.3,0.2-11,0.2c-7.2-0.1-14.8-1.4-21.6,0.4c-6.8,1.8-12-1.2-17.8-2.2
	c-0.6-0.1-1.4-1.8-1.3-2.8c0.2-10.7,0.7-21.3,0.9-32c0.3-12,1-24.1-0.6-36.1c-0.7-5.4,0.5-11.1,0.2-16.6c-0.6-9.2-1.7-18.4-2.5-27.6
	c-0.4-4.7-0.5-9.4-0.8-13.1c5.7-1.1,10.4-2,15.5-3c0,0,0.5,1.2,1.3,1.9c1,0.9,2.9,2.2,3.4,1.8c1.2-0.7,2.7-2.6,2.4-3.7
	c-1.8-8.3-0.8-16.4,0.1-24.8c1-9.9,0.6-19.9,0.7-29.9c0.4-22.7,2.6-45.4,0.3-68.1c0-0.3,0-0.6,0-1c1.2-19.2,2.5-38.4,3.7-57.6
	c0.3-5.4,0.9-10.8,0.9-16.2c0.1-4.9-1.1-10-0.5-14.8c1.2-9.8-1.7-16.4-10.5-20.3c-2.6-1.1-5.8-0.9-8.8-1.2c-7.9-0.6-15.9-2-23.8-1.5
	c-6.2,0.4-12.2,0.5-18.1-0.7c-9.7-2-19.3-2.3-29.2-0.3c-11.9,2.4-23.4-6.9-28.9-16.9c1.5-0.1,2.9-0.1,4.4-0.2c1.5-2.5-2.2-6-4.6-4.4
	c-13.1-21.4-27.7-41.9-43.6-61.3c-0.6-0.8-1.3-1.8-0.7-2.6s2,0.8,1,0.9c-4.9-6.4-9.9-12.7-14.8-19.1c-1.5,2.6-3,5.3-4.5,7.9
	c-3.5-5.5-5.9-11.6-8.6-17.6c-12.8-28.3-34.7-50.2-52.4-75.4c-3.3-4.7-6.1-9.7-9.3-14.4c-5-7.3-10.1-14.6-15.3-21.7
	c-2.7-3.8-5.9-7.2-8.6-10.9c-0.7-1-0.3-2.7-1-3.8c-5-8-10-15.8-15.1-23.7c-3.6-5.6-7.2-11.2-11-16.6c-4.8-6.8-9.9-13.4-14.6-20.2
	c-6.9-10-13.5-20.2-20.4-30.2c-12.7-18.2-25.5-36.3-38.5-54.3c-9-12.6-18.4-25-27.6-37.4c-5.6-7.6-11.1-15.4-16.8-22.9
	c-6.8-9-13.5-18.1-20.9-26.6c-10-11.4-20.6-22.2-31-33.2c-5.4-5.6-10.8-11.2-16.5-16.5c-3.1-2.8-7.1-4.6-10.1-7.5
	c-2.8-2.8-5.6-6.2-6.9-9.9c-1.5-4.5-0.9-9.8-2.3-14.4c-1-3.4-0.3-5.3,1.6-7.9c1.7-2.2,2.3-5.3,3.3-8c-0.4-0.2-0.9-0.4-1.3-0.5
	c-1.4,1.8-2.9,3.6-5.1,6.3c0.8-10.9,1.4-20.5,2.2-30.1c0.4-4.9,1.3-9.8,1.4-14.7c0.2-6.1-0.5-12.3-0.3-18.4
	c0.2-10.8,1.2-21.5,1-32.2c-0.2-8.4,0.7-17.4-6.5-23.4c-6.2,0-12.2,0-18.8,0c-0.1,0.3-0.7,1.4-1.1,2.3c-2.1-0.1-3.9-0.2-5.7-0.4
	c-7.1-0.9-14.2-2.3-21.3-2.6c-10.1-0.4-20.3,0-30.4,0.2c-5,0.1-9.9,0.3-14.8,0.5c-5.7,0.3-11.5,0.6-17.2,0.9
	c-2.5,0.1-4.9,0.3-7.4,0.5c-9.1,0.7-18.1,2.1-27.2,2c-15.8-0.3-31.6-1.5-47.4-2.2c-1.1-0.1-2.3,0.6-3.5,1c0.8,0.9,1.3,1.4,1.7,1.9
	c-4.2,1.1-8,2.1-11.8,3.2c0.1,0.5,0.2,0.9,0.3,1.4c1.2,0.1,2.4,0.3,4.5,0.5c-2.3,1.8-4,3.1-6.4,5c3.3,2.5,6.2,5.3,9.7,7.3
	c2.5,1.4,5.8,1.4,8.5,2.5c2.4,0.9,4.8,2.2,6.7,3.9c0.9,0.8,1.3,3.6,0.6,4.4c-6,7-9.8,15.3-14.4,23.1c-7,11.7-15.8,22.3-23.6,33.5
	c-7.2,10.3-14.1,20.8-21,31.4c-0.9,1.4-0.7,3.4-1.1,6c-1.3,1.8-3.4,4.3-5.2,7c-1.1,1.7-2.5,3.6-2.5,5.4c0,5.9-4,6.5-8.3,6.7
	c-10.9,0.3-21.8,0.5-32.7,0.6c-10.6,0.1-21.2,0.2-31.8,0.2c-19.9,0-39.8,0-59.8,0c-8.3,0-16.6,0.4-24.8,0.1
	c-12.1-0.4-24.3-1.3-36.4-1.7c-13.4-0.4-26.8-0.6-40.2-0.9c-12.7-0.2-25.3-0.6-38-0.5c-11.2,0.1-22.4,1-33.6,1.2
	c-11.3,0.2-22.6,0.2-33.9,0.1c-6.3-0.1-12.4,3.1-18.9-0.4c-2.1-1.1-5.9,1.1-9.7,2c-0.8-0.2-2.7-1.1-4.6-1.1
	c-6.2,0-12.5,0.4-18.7,0.7c-2.3,0.1-4.7,0.1-6.9,0.6c-6.5,1.3-17.4-4.8-20.1-10.8c-0.7-1.7-3.8-3.5-5.5-3.3
	c-3.9,0.5-7.7,3.3-11.6,3.3c-4.7,0-5.2,3.7-7.2,5.7c-3.5-1.2-6.9-2.4-10.2-3.6c-0.2,0.5-0.3,1-0.5,1.4c0.5,0.7,1,1.3,2.4,3.3
	c-3.1-0.5-5-0.8-6.8-1.1c-2.9-0.5-6.1-2.1-8.7-1.4c-7.2,2-14,3.9-21.8,2.9c-7.9-1-16.1-0.2-24.7-0.2c0-10.6,0.2-20.1,0-29.5
	c-0.2-11.1-0.9-22.2-1.2-33.3c-0.1-5.5,0.5-11.1,0.1-16.6c-0.2-2.7-1.8-5.3-2.9-8.4c2.1,0,3.9,0,5.8,0c10.2-0.3,20.3-1,30.5-0.7
	c11.1,0.3,22.1,2.2,33.2,2.4c23.3,0.4,46.7,0.2,70,0c9.6-0.1,19.2-1,28.8-1.2c8.8-0.2,17.6-0.2,26.5,0.1c2.9,0.1,5.8,1.6,8.8,1.7
	c5.5,0.2,11.1-0.7,16.5-0.2c12.8,1.1,25.6,3.2,38.4,4c15.6,0.9,31.2,0.6,46.8,1c29.9,0.7,59.8,1.6,89.6,2
	c15.9,0.2,31.9,2.8,47.7-1.1c0.8-0.2,1.9-0.4,2.4,0c4.4,3.4,7.2,1.3,9.4-2.7c6.8,5.2,7.2,5.3,9.5,3.6c-1.8-1-3.8-2.1-6.4-3.6
	c6.8-3.5,8,1.3,10.1,6.3c-0.3-9.4,1.5-10.6,10.4-8c-0.1-5.9,2.7-6.1,7.7-4.7c4,1.1,8.6,0.3,12.9,0c0.9-0.1,2-1.4,2.5-2.5
	c1.5-3.1,3.2-4.1,6.6-2.3s7.2,2.8,10.7,4.5s8.7,0.3,13.1-0.1c3.1-0.2,6.5-0.3,5.7-4.7c6.4-1.2,12.5-1.9,18.3-3.5
	c2.3-0.7,7.9-0.1,5.3-6.1c-0.3-0.7,2.1-2.5,3-3.5c-0.1,0-0.4,0-0.7,0c-3.9-0.7-10.2-0.4-11.2-2.5c-2.4-5.1-6.1-3.3-9.3-3.5
	c-4.1-0.3-8.3,0.1-12.5,0.4c-1.5,0.1-3,1.5-4.4,1.4c-7.5-0.9-15.1-5.1-22.3,1c-0.3,0.2-1,0-1.5,0c-4.6-0.1-9.2-0.2-13.8-0.2
	c-13.9-0.1-27.8-0.1-41.7-0.2c-0.3,0-0.5,0.3-1.1,0.7c0.5,0.8,0.9,1.6,1.2,2.1c-6.7,5.2-14.1,6.9-22.1,6.7
	c-10.6-0.3-21.3,0.4-31.9-0.1c-7.7-0.4-15.3-2.2-22.9-3.3c-7-1.1-14.7-4.2-21-2.5c-6.6,1.8-11.8-0.7-17.7-0.7
	c-0.9,0-1.9,0.2-3.7,0.4c1.5,1.2,2.4,2,3.3,2.7c-2.2,0.3-3.8-0.5-5.5-1.2c-1.5-0.6-3.1-1.4-4.6-1.4c-11.1-0.2-22.2,0-33.2-0.2
	c-8.1-0.1-16.2-0.6-24.3-0.8c-11.9-0.3-23.9-0.6-35.8-0.7c-9-0.1-18,0.1-27.1,0.3c-1.9,0-3.8,0.9-5.8,1c-11.1,0.5-22.2,0.8-33.3,1.1
	c-3.4,0.1-5.4,0.8-5.7,5c-0.3,4.8-6.5,7.4-9.1,3.9c-2.7-3.6-4.9-1.5-7.8-1c-2.8,0.5-5.8-0.2-8.8-0.4c-0.2,0-0.5,0.4-0.7,0.7
	c-1.9,2.6-3.5,1.2-5.9,0.1c-4.5-2-9.4-4.2-14.1-4c-3.2,0.1-5.2-0.4-7.5-2.1c-1.3-1-2.9-1.8-4.4-2.1c-7.1-1.4-14.3-3.1-21.5-3.7
	c-11.7-0.9-23.5-1.1-35.3-1.4c-16.1-0.4-32.2-1.1-48.4-0.9c-17.9,0.2-35.8,1.4-53.8,1.9c-12.5,0.4-25,0.4-37.5,0.6
	c-5.5,0.1-11,0.9-13.8,6.2c-2.7,5.1-2.3,5.3-6.5,1.2c-0.9-0.9-1.4-2-2.2-3.2c-1.2,1.1-2.4,2.1-3.6,3.1c0-0.4-0.1-0.9-0.1-1.3
	c-1.1-0.2-2.6-1-3.4-0.6c-8.2,5.1-17.4,9-23.5,17.1c-0.6,0.8-1.1,1.6-1.6,2.4c-1.3,2-2.4,4.1-3.8,6c-0.8,1.2-2,2.1-2.9,3.2
	c-5.5,6.1-10.9,12.3-16.5,18.4c-5.9,6.5-12,12.9-17.9,19.5c-1,1.1-0.9,3.3-1.9,4.4c-5.2,5.4-10.7,10.7-16.1,15.9
	c-1,1-2.5,2.2-3.8,2.1c-6.6-0.1-13.2-0.7-19.9-0.9c-1.5-0.1-3.1,0.4-4.6,0.9c-5.1,1.5-10.1,3.1-15.2,4.7c-0.1,0-0.4-0.3-0.6-0.5
	c0.9-0.2,1.6-0.4,2.9-0.7c-9.9-6.9-21-4.7-31.4-5.1c-9.8-0.4-19.7,1.3-29.5,1.1c-9.9-0.2-19.7-1.6-29.6-2.5c-3.3-0.3-7.5,0.6-9.8-1
	c-8-5.7-15.9-1.1-23.8-0.8c-4.2,0.2-8.6,1.3-12.5,2.9c-3.4,1.4-6.5,3.7-9.1,6.3c-1.4,1.4-1.4,4.1-2.3,6.6c0.4,0.5,1.3,1.4,2.4,2.6
	c-1.8,0.6-3.1,1-4.5,1.4c0.3,1.7,0.3,3.4,0.8,4.9c0.4,1,1.5,1.7,2.1,2.7c2.1,3.4,1,5.7-3.4,6.3c0.8,6.2,1.6,12.4,2.5,19.3
	c-0.3,0.4-1.2,1.5-2.1,2.6c0.5,0,1.1,0.1,1.6,0.1c0.8,9.3,1.6,18.6,2.5,28.8c-0.3,1.1-1.4,3.4-1.4,5.6c0,6.4,0.3,12.9,0.7,19.3
	c0.4,7.3,1.1,14.5,1.4,21.7c0.1,2.5-0.7,5-0.6,7.4c0.4,7,1.4,13.9,1.5,20.8c0.1,10.6-1.1,21.3-0.5,31.8c1,17,2.9,33.9,4.5,50.8
	c0.1,0.8-0.1,1.7,0,2.5c0.3,2.8,0.7,5.6,0.9,8.4c0.2,3.2,0.3,6.3,0.1,9.5c-0.3,4.4-1.2,8.8-1.4,13.2c-0.1,2.2-0.1,5.4,1.2,6.5
	c2.9,2.3,2.6,4,0.9,6.5c-0.7,1.1-1.3,2.5-1.4,3.8c-0.5,16.1-1.1,32.3-1.3,48.4c-0.1,6.4,0.8,12.8,1.5,19.2c0.3,2.9,1.9,5.7,2.1,8.6
	c0.3,7.4,0.3,14.8,0.2,22.2c-0.1,15.9-0.4,31.9-0.4,47.8c0,2,0.6,4.9,2,6c4.2,3.1,6.5,6.9,5.9,12.1c-0.5,4.8-0.9,9.7-2.3,14.3
	c-1.9,6.1-7,11.2-5.1,18.3c0.1,0.4-0.3,0.8-0.6,1.4c-8.6,0.4-17.1,0.6-25.6,1.3c-2.7,0.2-5.3,1.5-8,2.1c-1.3,0.3-2.8,0.1-4.2,0.1
	c-5.7,0.1-12.5-1.7-16.9,0.8c-5.1,2.9-8.3,4.9-12.5-0.4c-0.4,2.6,0,5.4-1.1,6.2c-5,3.7-6,8.5-5.8,14.2c0.1,2.2-1.4,4.4-1.9,6.6
	c-0.5,2.4-1.1,4.8-1.1,7.2c0,7.1,0.3,14.3,0.5,21.4c0.1,3,0,6,0.3,9c0.3,3.3,1.2,6.5,1.1,9.7c-0.3,14.1-1.4,28.2-1.2,42.2
	c0.2,12.9,1.5,25.8,2.6,38.7c1.5,17.4,3.7,34.7,4.9,52c0.7,10.2,0.3,20.6,0.4,30.9c0.3,25.7,0.6,51.4,0.8,77c0,5.7-0.8,11.2,0.5,17
	c1.2,5.2,0.5,10.9,0.6,16.4c0.2,10.9,0.1,21.8,0.5,32.7c0.2,5.3,1.2,10.6,1.9,16.6c-3.5,1.3-2.7,5.3-2.5,9.3
	c0.2,5.7,0.2,11.5,0,17.2c-0.1,3-0.6,6-1,9.9c7.3-2.1,7.8,1.5,8,6.1c0.5,12.3,1.8,24.5,2,36.8c0,4.9-1.7,10.1-3.7,14.7
	c-2.1,4.7-3.6,14.7-0.5,17.2c4.6,3.8,2.8,5.7-1.9,8c1.7,2.5,3.1,4.5,4.5,6.5c-1.2,2.6-2.6,5.5-4.2,8.9c1.7,0,2,0.1,2.3,0
	c5.5-2.1,8.7-0.1,10.7,5.1c1.4,3.8,4.3,7.4,8.9,7.1c7.2-0.6,14.3-0.7,21.5-2.8c9.5-2.7,19.7-3,29.7-4c4.2-0.4,8.4-0.4,12.6-0.3
	c13.8,0.4,27.7,1,41.5,1.3c5.2,0.1,10.5-1.3,15.7-0.9c6.1,0.5,10.8-0.6,13.3-7.2c1.7,2.9,3.1,5.3,4.7,8.2c5.3-5.4,7.8,4.1,12.8,2.4
	c-0.1-4.6,0.6-8.5,5.2-8.9c0.8-3.4,1.7-6.3,2.1-9.3s0.3-6.2,0.4-9.2c0.1-5.6,0.2-11.2,0.3-16.8c0.1-9.8,0.2-19.6,0.2-29.4
	c0-3.6-1.1-7.3-0.2-10.6c2.1-8.2,2.5-16.3,0.5-24.5c-0.7-2.8,0.2-6.8-5.6-6c1.9-1.4,3-2.3,3.5-2.6c-0.5-5.4-0.9-10.2-1.3-15.2
	c3.7-0.9,2-5.1,1.8-8.1c-0.4-8.7-1.8-17.4-2.1-26.1c-0.6-15.4-0.8-30.8-1.1-46.2c-0.1-4.5,0.5-9.1-0.1-13.5
	c-1.6-10.8-1.8-10.7,0.2-17.6c0.3-0.9,0.3-2.2-0.2-2.9c-1.9-2.9-0.4-5.2,0.9-7.8c0.9-1.9,0.9-4.3,1.3-6.5c0.2-1.1,0-2.4,0.5-3.3
	c2.7-4.3,3.1-9.9,7.8-13.2c1.4-1,1.3-4,2.5-5.6c1.5-2.1,3.4-4.1,5.5-5.4c1.9-1.1,4.3-1.2,8-2c-2.8-1-4.2-1.5-5.8-2
	c3.5-6.4,6.6-12.7,10.2-18.6c0.7-1.2,3-1.8,4.6-1.9c3.5-0.2,7,0.2,10.4,0.3c2.9,0.2,5.8,0.4,8.7,0.6c-1.5,1.7-2.6,2.9-3.7,4.1
	c5.1-1.8,10-4.3,15.8-3.1c4.3,0.8,8.8,1.1,13.2,1.1c10.4-0.1,20.8-0.6,31.1-1c3.3-0.1,4.6,1.6,4.5,4.6c-0.2,5.7-0.5,11.3-0.8,17
	c-0.1,1.5-0.3,3-0.1,4.5c0.7,4.1,2.1,8.1,2.2,12.2c0.3,11.7,0.1,23.5-0.1,35.2c-0.1,6.5-0.8,13-0.9,19.5c-0.1,5.1,0.2,10.2,0.6,15.3
	c0.4,6,1.4,12,1.7,17.9c0.4,6,0.3,11.9,0.4,17.9c0,1.9-0.9,4-0.3,5.5c1.4,3.2,3.7,6,5.3,9.2c0.5,1.1,0.1,2.6,0.1,4.8
	c1.1,0,2.8,0.1,4.5,0c4.1-0.2,8.2-0.9,12.3-0.7c11.8,0.6,23.5,1.6,35.3,2.4c4.5,0.3,9.3-0.8,13.4,0.6c3.7,1.2,7.6,1.9,11.1,2.4
	c8.3,1.1,16.9,0.4,25.3,0.4c0-0.5,0-1.1,0.1-1.6c-1.4-0.1-2.8-0.4-4.2-0.2c-4.2,0.7-7.5-2.5-5.6-6.2c4.6-9,3.7-18.8,4.3-28.3
	c0.5-8.4,0.4-17.1-1.2-25.4c-1.5-8,3.3-15.5,0.3-23.5c-1.3-3.3-0.3-7.6,0-11.4c0.6-8.5,1.4-16.9,1.9-25.4c0.2-3.6-0.5-7.2-0.2-10.8
	c0.7-8.1,1.8-16.2,2.7-24.3c0.5-4.5,1.2-9.1,1.5-13.6c0.1-1.6-0.8-3.3-0.7-4.9c0.1-1.7,0.7-3.4,1.4-6.4c-2.6-3.1-2.1-7.8,0.8-12.6
	c-0.8-1-1.6-2-2.5-3c1.8-0.9,4.3-1.5,4.4-2.2c0.4-6.2,6.2-7.8,9.5-11.5c2.7-3,4.2-2.1,4.5,0.9c2-0.5,3.8-1.3,5.5-1.4
	c3.5-0.3,7-0.5,10.5-0.5c1.9,0,3.9-0.2,5.5,0.5c3.1,1.3,12.2,0.5,13.8-1c4.4,0.7,8,2,11.6,1.9c11-0.4,22-1.3,32.8,1.4
	c1.7,0.4,3.6,0.1,5.5,0.1c5.8-0.1,11.5-0.7,17.3-0.4c11.7,0.7,23.3,1.8,35.2,2.8c0.7-2.7,5.2-3.9,8.6-1.5c1.4,1,4.3,2.1,4.7,1.7
	c2.7-3.3,5.5-1.5,8.5-0.8c3.8,0.9,7.6,1.7,11.5,2c2.8,0.2,5.8-1,8.5-0.5c14.5,2.4,29.3,0,43.8,2.4c0.3,0.1,0.7-0.1,1-0.1
	c4.6-0.3,9.3-1.1,13.8-0.8c5.9,0.4,11.7,1.7,17.2,2.6c-0.4-0.6-1.1-1.8-1.8-2.8c2.6,0.2,4.5,0.3,6.5,0.5c6,0.4,12,1.1,18,1.2
	c3,0.1,6.6-2,8.9-0.9c4.4,2.2,9.1,1.1,13.4,2.6c1.8,0.6,5,1,5.8,0c3.5-4.4,7.7-1.6,11.6-1.8c3.9-0.2,7.9-0.4,11.7-1.2
	c5.1-1.1,10-3.1,15-4.3c1.4-0.3,3.4,0.2,4.6,1.1c6.4,4.9,14,5.6,21.6,6.6c4.1,0.5,8,0.6,9.9,5.4c1,2.5,3.1,4.5,5.5-1.3
	c-0.3,3.3-0.3,4.9-0.6,6.5c-0.6,3.5-1.9,7-1.9,10.5c0,4.8,0.6,9.7,1.7,14.4c2.4,10.3,3.2,20.6,2.1,31.1c-0.2,1.5,1,3.1,1.7,5
	c-4.6,10.7-1.9,22.5-2.7,34.2c-0.8,12.5,3.5,24.4,1,37.4c1.7-1,2.7-1.6,3.9-2.3c-4.9,18.3-4.9,20.6-0.3,24.9
	c-3.4,6.7-2.9,13.3-0.3,20.1c-0.5,0.2-1,0.4-1.2,0.4c0.4,3.7,1,6.7,1.1,9.8c0,0.8-2.1,1.8-2,2.5c0.9,6.3,2.4,12.4,3.1,18.7
	c0.6,5.3,0.2,10.6,0.7,15.9c0.2,2.2,1.5,4.3,2.4,6.5c-3.8,2.6-5.3,21.5-2.4,35.5c0,0.2,0.5,0.3,0.8,0.5c0.7-1,1.4-2.1,1.6-2.3
	c2.4,1.8,4,3,5.8,4.4c-1.3,0.8-2.8,1.9-4.3,2.6c-5.7,2.6-7.8,5.6-5,10.8c3.9,7.2,3.5,14.7,3.7,22.3c0.1,4.2,0.5,8.3,1,12.4
	c0.8,6.4,5,11.4,9.6,11.1c0.9,4.8,3.9,8.5,8.1,10.8c2.9,1.6,6.3,2.3,9.7,3.5c0.4-0.6,0.5-4.4,3.3-0.4c0.5,0.7,1.9,1,2.9,1.1
	c5.5,0.8,11,1.6,16.8,2.4c0.2,3.2,2.2,4.3,6.1,2.8c1.3-0.5,3,0,4.5,0.5c1.3,0.4,2.5,1.3,4.6,2.6c0.5-4.2,1.1-7.4,1.1-10.6
	c0-3.6,1.3-5.1,5-4.9c4.8,0.3,9.6-0.1,14.3,0.5c4,0.5,7.4,2.1,8.3,7c0.7,3.6,2.3,7.1,3.4,10.7c0.4-0.1,0.7-0.2,1.1-0.3
	c0.6-2.1,1.1-4.2,1.9-7.1c2.7,4.2,4.9,7.6,6.8,10.6c2-4.3,4.3-8.8,6.3-13.5c0.5-1.2,0.6-2.6,0.5-3.9c-0.5-8.7-1.3-17.5-1.7-26.2
	c-1-21.9-1.7-43.8-2.8-65.7c-0.2-3.9-1.9-7.7-3.1-12.5c0.2-2.5,0.6-6.2,0.9-9.9c0.3,0,0.6,0.1,0.8,0.1c0.4,1.6,0.8,3.2,1.3,5.5
	c0.6-20.4,1.2-39.8,1.6-59.2c0.2-7.9,0-15.9,0-23.8c0-16.5-0.1-33.1,0.2-49.6c0.1-7.4,0-14.5-3.1-21.5c-0.8-1.8-0.1-4.5,0.6-6.6
	c0.8-2.5,2.4-4.8,4-7.9c2.8,0,7.3-1.3,10,0.4c2.5,1.5,3.1,6.1,4.9,10.4c1.3-2.7,2-4.3,3.1-6.4c0.8,1.7,1.2,2.8,1.9,4.4
	c0.6-2.7,0.8-5.7,4.7-3.3c0.1-2.7,0.3-4.8,0.4-7c36.2-2.2,72.3-4.4,108.6-6.7c1.5,4.4,3.3,9.5,5.1,14.5c-0.1,0.1-0.3,0.1-0.4,0.2
	c-0.7-1.2-1.4-2.4-2.1-3.6c-0.6,0.3-1.3,0.7-1.9,1c0.7,8.9,1.4,17.9,2.1,26.8c0.7,0,1.4,0,2.1,0c0.2-3.7,0.4-7.3,0.6-11
	c0.6,0,1.1,0,1.7,0c0.3,5,2.7,11.9,0.4,14.6c-4.8,5.6-2.3,9.8-0.9,14.9c0.7,2.4,0.4,5.2,0.6,7.8c0.1,1.1,0.3,2.3,0.6,3.4
	c0.2,0.9,1,2,0.7,2.7c-2.7,6.2,1.5,12.8-2.1,19.7c-2.3,4.4,0.1,11.3,0.5,17.1c1.2,16.5,2.4,33,3.6,49.5c0.4,5.9,1,11.8,1.1,17.7
	c0.2,10.3,0.3,20.5,0.2,30.8c-0.1,4.6-1.1,9.2-1.1,13.9c0.1,6.9,1.1,13.7,1.2,20.5c0,4.5-2.2,9.3-1.1,13.4c1.2,4.4,1.2,8.6,1.7,13
	c0.8,7.4,0.9,14.7,4.7,22c3.5,6.7,3.6,15.3,4.4,23.1c0.5,4.8,1.2,8.4,6.6,7.8c3.6,9.1,6.5,18.2,16.2,22.5c0.6-1.6,1.1-3.1,1.7-4.9
	c1,1.7,1.6,2.9,2.3,4.1c2.6-6.1,5.2-12.2,5.1-18.3c-0.1-12.6-1.8-25.1-2.6-37.7c-0.8-11.3-1.5-22.6-2.1-33.9
	c-0.6-13.3-0.9-26.6-1.5-39.9c0-1.1-0.8-2.2-1.5-3.1s-1.7-1.6-2.6-2.4c0.3-0.3,0.7-0.6,1-0.8c0.7,0.4,1.4,0.8,2.3,1.2
	c0-3.9,0-7.4,0-10.8c0-6.1,0-12.2,0.2-18.3c0.1-4,1-8,1-12.1c-0.1-9.6-0.3-19.2-0.7-28.8c-0.6-14.6-1.3-29.2-2.2-43.9
	c-0.4-7.4-1.2-14.7-1.9-22c-0.1-0.9-0.7-1.8-0.9-2.8c-0.4-1.6-0.8-3.2-0.9-4.8c-0.1-1.6,0.3-3.2,0.3-4.7c-0.1-5.1-0.4-10.1-0.6-15.2
	c-0.3-11.2-0.3-22.4-1.1-33.5c-1.1-15.2-3.1-30.3-4.2-45.5c-0.8-11.7,0.6-23.3-2.8-35.1c-2.6-8.9-1.2-19.1-1.1-28.7
	c0.1-14,0.9-28,1-41.9c0.1-12-0.4-23.9-0.7-35.9c-0.4-16.4-0.9-32.7-1.6-49.1c-0.1-3.3-2.2-6.6-2.2-9.9c-0.2-8.5,0.4-17,0.4-25.5
	c-0.1-9.1-0.5-18.1-0.9-27.2c-1-27.4-1.9-54.7-3-82.1c-1.2-28.1-2.7-56.1-4.1-84.2c-0.8-15.7-1.6-31.5-2.6-47.2
	c-0.4-6.3-0.4-12.6-3.5-18.8c-2.4-4.8-2.3-10.9-3-16.4c-0.2-1.5,1.1-3.2,0.9-4.8c-0.5-4.4-1.4-8.8-2-12.5c2.7-0.2,5.3,0.1,5.6-0.6
	c1.4-3.1-0.1-5.4-3.5-7.7c0,2,0,3.2,0,4.8c-3.4-3.9-2.4-5.7,3-7.7c0-4.5-0.3-9,0.1-13.5c0.2-2.3,1-5,2.4-6.6
	c8.7-10,17.4-20,26.7-29.5c10.8-11,22.3-21.4,33.2-32.4c11.5-11.7,22.5-23.8,33.8-35.6c0.7-0.8,1.9-1.1,3.1-1.8
	c0.3,1.2,0.6,2,0.8,2.8c2.1,13.1,3,26.2,2.4,39.6c-0.5,12.5,1.5,25.1,2.6,37.7c1.8,21,3.8,42,5.5,63c1.5,17.5,3,34.9,4.1,52.4
	c0.8,12.9,4,25.8,1.2,38.9c-0.1,0.5,0.5,1,0.5,1.6c0.4,5.8,2.3,12.2,0.6,17.3c-1.8,5.3-0.9,10.1-0.8,14.9
	c0.2,11.4,1.6,22.7,2.4,34.1c0.4,6,0.8,12,1,18c0.1,5.4-0.5,10.8,0,16.1c0.8,8.9,2.4,17.8,1.2,26.9c-0.1,0.6-0.1,1.4,0.3,1.9
	c2.3,3.8,1,8.3,1.5,12.3c0.9,8.8-0.6,17.7-0.5,26.6c0.1,18.4,0.9,36.7,0.9,55.1c0,18.3-0.8,36.6-0.9,55c0,7.9,1.3,15.7,1.6,23.6
	c0.3,6.1-0.2,12.3,0,18.4c0.3,10.7,2.2,21.3-0.7,31.9c-0.3,0.9-0.2,2-0.1,3c0.7,5.8,1.6,11.6,2,17.5c0.5,7.8,0.5,15.7,0.8,23.6
	c0.2,5.1,0.7,10.1,0.8,15.2c0.1,3.6-0.2,7.3-0.4,12.2c0-0.1,0.6,1.3,0.7,2.6c0.2,4.2-0.1,8.5,0.5,12.6c1.2,7.4,3.9,14.7,3.9,22.1
	c0,3.1,0.3,6.3,0.3,9.4c0,7,0,13.9-0.2,20.9c-0.2,10.2-0.9,20.4-0.7,30.5c0.1,4.2,2.4,8.4,2.8,12.6c0.5,5-0.4,10,1.6,15.2
	c1.8,4.8,1.2,10.4,1.3,15.7c0.2,9.1,0.7,18.1,0.2,27.2c-0.5,8.2,1.2,16.4-0.1,24.7c-0.8,5.2,0.7,10.7,1.1,16.1
	c0.2,2.9,0.3,5.8,0.3,8.8c0,7.8-0.3,15.6-0.1,23.3c0.2,7.8,1,15.7,1,23.5c0,5.3-1.1,10.6-1.3,16c-0.1,1.3,1.3,2.8,1.4,2.9
	c-0.3,3.9-1.5,7.2-0.6,9.7c2.4,6.5,0.5,13.6,4.8,20.3c3.3,5,1.6,12.5,7.6,17.5c2.8,2.3,5.5,7.2,4.6,12.4c-0.4,2.5,0.7,5.2,1.2,7.9
	c0.5,0,0.9,0,1.4,0c0.4-1.8,0.8-3.7,1.1-5.5c2.6-0.5,5.1-1,7.7-1.5c0.2-2.4,0.4-4.5,0.6-6.5c0.3,0,0.5,0,0.8,0.1
	c0.3,1.6,0.6,3.3,0.9,4.9c1-3.2-0.1-7,1.3-9.3c2.9-5,2.5-10.2,2.4-15.3c-0.1-4,0.1-6.8,3.9-6.6c0-9.3,0-18.3,0-27.3
	c1.6-0.4,3.1-0.8,4-1.1c-0.9-4.7-1.8-8.9-2.6-12.9c-0.5,0.6-1.4,1.6-2.2,2.6c0-6.5,0.2-12.9,0-19.3c-0.4-9.3-1.1-18.7-1.5-28
	c-0.6-12.6-1.1-25.2-1.4-37.7c-0.4-16.6-0.5-33.1-0.7-49.7c0-0.7,0.3-1.3,0.3-2c0.6-11.9,1.7-23.8,1.6-35.6
	c-0.1-13.4-2.3-26.8,0.6-40.2c1.3-6.2,2.8-7.3,8.7-5.2c12.6,4.6,25.8,5.7,38.9,6.3c13.2,0.6,26.4,0.1,39.6,0c8.2,0,16.4-0.1,24.5,0
	c7.4,0.1,15-0.4,22.3,0.7c6.8,1.1,13.2,4.1,19.9,6.1c1.3,0.4,4,0.2,4.2-0.4c1.6-4.6,5.3-2.2,8.5-3.5c1.6,10.5,3.7,20.5,4.5,30.6
	c1,12.9,1,25.9,1.4,38.9c0.4,11.9,0.6,23.7,1.1,35.6c0.2,5.5,1.1,10.9,1.4,16.3c0.1,1.2-0.8,3.4-1.6,3.6c-3.5,1-2.7,3.3-2.2,5.5
	c0.9,4.1,1.8,8.1,2.6,12.2c0.2,1.2,0.2,3.3-0.5,3.7c-3.1,1.9-1.5,4.2-1.1,6.6c0.8,5.4,2,10.8,2.2,16.2c0.2,6.8-0.6,13.6-0.8,20.4
	c-0.1,1.9,0.5,3.8,0.4,5.7c-0.1,3.7-0.7,7.4-0.7,11.1c-0.1,8.1,0,16.2,0,24.5c-4.2,2.2-8.5,4.4-12.9,6.7c1.7,3.4,1.4,3.8-7.7,6.6
	c3.3,1.2,6.8,2.5,9.8,3.6c-1.5,1.7-3.6,3.4-3.4,3.8c1.5,2.4,1.6,6.1,6.1,6c4.3-0.1,8.6,1.1,12.9,1.4c7,0.5,7.3,0.7,8.1,8.5
	c2.8-1.3,5.3-2.5,8.5-4c0.3,2.3,0.7,5,1.1,7.8c1.5-1.2,2.8-2.2,4.4-3.3c-1.2-1-2.3-1.9-2.9-2.4c1.1-1.1,1.8-1.9,2.6-2.6
	c1.6-1.3,3.2-3.6,5-3.7c12.8-0.8,25.6-2,38.3-1.4c18.1,0.9,36.2,2.7,54.1,5.2c26.7,3.8,53.5,6.2,80.5,7.2
	c23.8,0.9,47.5,2.5,71.3,2.9c13.4,0.2,26.9-1.3,40.3-2c2.4-0.1,4.8,0,8.1,0c2.4-3.1,5.6-7.5,8.6-11.5c0.4,2.2,0.2,5.5,1.7,7.5
	c1.1,1.5,4.4,1.3,7,1.9c0.5-0.6,1.2-1.5,2.2-2.7c0.5,1.4,0.8,2.2,1.1,3.1c1.7-2.1,2.6-4.4,2.6-6.7c-0.2-9.3-0.9-18.5-1.1-27.8
	C1909.4,1244,1910.8,1241.1,1910.7,1238.1z M432.3,500.5c-2.7,10.3-7.2,20-13.7,31.2c-0.8,1.4-2.8,2-4.1,3.2
	c-0.7,0.7-1.1,1.8-1.3,2.8c-0.3,1.4,0,3-0.6,4.1c-6.1,10.2-12.4,20.3-19.1,31.2c-0.6-1.4-0.9-2.1-1.2-2.8c-0.4,0.3-0.9,0.6-1.1,1
	c-5.1,9.1-9.4,18.7-15.4,27.1c-5.2,7.3-7.7,15.5-11.2,23.3c-1.1,2.4-3.7,4.1-5.2,6.4c-4.1,6.2-8.5,12.4-12,19
	c-2.5,4.7-3.3,10.2-5.5,15.1c-2.5,5.7-5.7,11.1-9.7,16.2c-0.2-2.2-0.4-4.5-0.6-6.7c-4.9,0.1-9.5-4.7-9.8-9.5c-0.2-2.3-1.8-4.5-2-6.9
	c-0.8-10.1-1.2-20.2-1.9-30.3c-0.1-2.1-0.4-4.3-0.9-6.4c-0.9-3.4-2.4-6.3-0.4-10.3c1.2-2.4-0.7-6.2-0.8-9.3
	c-0.2-13.3,0.2-26.6-0.4-39.9c-0.2-5.1-2.4-10.1-3.7-15.2c-0.1-0.6-0.1-1.2-0.1-1.9c-0.2-4.4-0.5-8.7-0.5-13.1
	c0-3.2,0.4-6.4,0.3-9.7c-0.5-17.9-1-35.9-1.8-53.8c-0.2-4.5-1.8-9-2.4-13.5c-0.6-5.4-0.7-10.9-1-16.3c-0.5-8.9-1.1-17.8-1.6-26.7
	c-0.6-11.5-1-23-1.5-34.5c-0.2-5.3-0.7-10.5-0.9-15.8c-0.1-1.4,0.2-2.9,0.5-4.3c1.2-5.6,0.9-10.6-1.2-16.4c-2-5.7-0.9-12.6-0.6-18.9
	c0.2-3.7,0.6-6.9-6.1-7.5c3.6-2,5.7-3.1,7.9-4.3c-0.1-1.4-0.2-3-0.4-5.2c4.1,0,8,0,12,0c16.2-0.1,32.4-0.3,48.5-0.4
	c5.3,0,10.6-0.1,15.9-0.1c10.7-0.2,22.8-1.7,33.4,0.2c16,2.8,23,22.4,22.6,38.6c-0.3,16.3-4.6,33.3,1.6,48.4
	c1.1-0.9-0.9-2.7-2.1-1.9c-1.2,0.8-1.3,2.5-1.2,3.9c0.8,25.3,1.7,50.5,2.5,75.8C436,479.5,435,490.3,432.3,500.5z M1662.7,961.8
	c-4.6,5-13.4,3.3-20.1,1c-4.7-1.6-9.4-3.2-14.1-4.8c-6-2.1-13.9-3.6-17.8,1.4c3.4,3.5,4,9.4,1.4,13.5c-1.1,1.4-3.4-0.5-3.5-2.3
	s0.9-3.7,0.2-5.4c-0.7-1.7-2.6-2.4-4.4-2.8c-20.8-5.5-39.9-3.4-60.6,0.8c-1.3-7.4-5.2-14.2-11-19c1.6-0.4,3.3-0.9,4.9-1.3
	c-5.8-9.9-11-24.6-4.2-35.2c2.4-3.7,6.1-6.5,7.5-10.7c1.2-3.9,0.1-8.1-0.3-12.2c-0.4-4.1,0.2-8.9,3.7-11c4.8-2.9,10.7,1.2,14.5,5.2
	c3.8,4.1,8.5,8.9,14,7.6c-6.5-5.6-13-11.3-19.5-16.9c-3.6-3.2-7.6-7.9-5.4-12.2c-3.2,1.4-6-2.6-7-6c-1.8-6-5.4-7.8-7.1-13.8
	c-2.1-7.6-0.6-17.4-1.1-25.2c0,0,0,0,0,0c-0.6-8.6-4.1-7.1,6.7-10c8.4-2.3,17.9-2.5,26.6-3.3c18.6-1.6,37.3-1.7,55.9-0.4
	c-0.3,2.5-0.6,5-0.9,7.4c23.6,0.7,47.2,1.5,70.8,2.3c-0.8,3.6,1.4,7.6,4.9,8.8c2.1-6.5,10.2-8.8,17.1-8.7c6.8,0.1,14.1,1.5,20.3-1.5
	c3.3-1.6,6.1-4.4,9.8-4.7c3.6-0.3,7.3,4.6,4.4,6.9c2.3-0.1,4.6-1.3,6-3.1c4.4,2.2,8.9,4.4,13.3,6.6c-1.4-2.4,1.8-5.4,4.5-4.8
	c2.7,0.6,4.5,3.1,6.1,5.4c-0.9-2.5,2.4-4.6,5-4.1s4.7,2.5,7.1,3.4c2.5,1,5.3,0.9,7.7,2c3.8,1.8,5.8,6.3,5.5,10.5s-2.4,8.1-4.9,11.4
	c-2,2.7-3.5,7.6-0.2,8.2c-1.6-1.1-3,1.6-3.1,3.5c-0.6,15.3-1.3,30.7-1.9,46c-2-1-4-1.9-6.1-2.9c1.8-1.4,3.5-2.9,5.3-4.3
	c0-3.9-15.5-5.1-7.5,6.4c2.5,3.6,2.7,10.3,3.1,14.4c0.7,8.1-2.5,16.5,1.9,24.4c0.7,1.3,0.3,3.9-0.5,5.3c-1.8,3.1-1.1,5.2,1.9,7.6
	c0.5-1.5,0.9-2.5,1.6-4.8c1,2.8,2.7,5.3,2.1,6.5c-2.6,4.8,0,9.5-0.7,14.2c-1.3,8.9-4.7,10.6-15.7,8.8c1.2-1.6,2.4-3.1,3.6-4.7
	c-2.3,0.1-4.5,0.2-6.8,0.2c-3.4-3.6-0.7-9.4,1.3-14c2-4.6,1.3-12-3.7-12.1c-1.8,0-3.4,1.2-5.2,1.6c-1.8,0.5-4.2-0.3-4.2-2.2
	c3.4-4.8-4.4-12.1-8.9-8.3c6.2,5.8,9.5,14.4,8.8,22.8c-2.8-4.6-5.6-9.2-8.4-13.7c-1.5,3.2-3,6.3-4.5,9.5c-0.1-5.2-3.9-10.1-8.9-11.6
	c4.1,3.4,2.4,11.4-2.8,12.7c2.7,1.2,5.4,2.4,8.1,3.6c-1.9,2.6-5.8-0.1-8.3-2.3c-6.4-5.5-16.8-5.7-23.4-0.4c0,2-0.1,4-0.1,6
	c-5.4-0.8-10.7-1.6-16.1-2.5c1.8,2.5-0.1,6.7-3.2,6.9c-1.5-2.8,0.4-6.8,3.6-7.4c-3.4-3.1-7.7,2.5-10.5,6.2c-6,8-19.7,8.1-25.9,0.3
	C1663.2,961.2,1662.9,961.5,1662.7,961.8z M1808.1,1198.8c0,0.8-0.8,1.6-1.2,2.4c-0.2-0.1-0.5-0.1-0.7-0.2c0.2-2.3,0.5-4.5,0.7-6.8
	c-0.4-0.1-0.8-0.2-1.2-0.3c-0.5,1.4-1.8,3.3-1.4,4.2c1.9,3.9,0.1,7.5-0.5,11.1c-0.2,1.5-2.4,2.7-3.7,4c-2.2-2.5-6.2,1-8.3-2.5
	c-0.3-0.4-3.6,0-4.3,1c-2.1,2.9-4.9,2.7-7.9,2.9c-10.6,0.6-21.1,1.6-31.7,2.3c-3.9,0.2-7.8-0.3-11.7-0.1c-5.2,0.2-10.4,0.7-15.6,0.9
	c-1.8,0.1-3.6-0.2-5.4-0.2c-9.3-0.3-18.6-0.6-27.9-0.8c-5.2-0.1-10.4,0.1-15.5-0.2c-0.8,0-2-1.8-2.1-2.9c-0.1-1.2,0.8-2.5,1.1-3.1
	c-0.6-1.7-1.3-3.2-1.4-4.6c-0.6-9.3-1.1-18.7-1.5-28c-0.5-10.7-0.9-21.4-1.3-32.1c-0.3-7.7-0.2-15.3-0.6-23c-0.2-3.2,1.4-4,4.1-4.2
	c26.3-2,52.6-3.8,78.8-6.3c7.7-0.7,15.2-3.2,22.9-4.7c1.8-0.4,4.2-0.6,5.6,0.3c3.9,2.3,7.8,3.4,12.1,4.6c4.4,1.2,8,5.9,11.1,10.3
	c6.9,10,3.7,21.5,6.2,32c1.3,5.6,2.1,11.4,2.2,17.2C1809.2,1180.9,1808.5,1189.8,1808.1,1198.8z"/>
</svg>
