<?xml version="1.0" encoding="utf-8"?>
<!-- Generator: Adobe Illustrator 22.0.0, SVG Export Plug-In . SVG Version: 6.00 Build 0)  -->
<svg version="1.1" id="Layer_2" xmlns="http://www.w3.org/2000/svg" xmlns:xlink="http://www.w3.org/1999/xlink" x="0px" y="0px"
	 viewBox="0 0 2000 1362" style="enable-background:new 0 0 2000 1362;" xml:space="preserve">
<style type="text/css">
	.st0{stroke:#000000;stroke-width:5;stroke-miterlimit:10;}
</style>
<path class="st0" d="M365.6,945.6c1.2-1.3,2.3-2.5,4-4.3c-2.9-0.2-5.8-0.4-8.7-0.6c-3.5-0.2-7-0.5-10.4-0.3
	c-1.6,0.1-3.9,0.7-4.6,1.9c-3.6,6-6.7,12.2-10.2,18.6c1.6,0.6,3,1,5.8,2c-3.6,0.9-6.1,0.9-8,2c-2.2,1.3-4,3.3-5.5,5.4
	c-1.2,1.6-1.1,4.6-2.5,5.6c-4.7,3.3-5.2,8.8-7.8,13.2c-0.5,0.9-0.3,2.2-0.5,3.3c-0.4,2.2-0.4,4.6-1.3,6.5c-1.3,2.6-2.7,4.9-0.9,7.8
	c0.5,0.7,0.4,2,0.2,2.9c-2,6.9-1.8,6.8-0.2,17.6c0.7,4.4,0,9,0.1,13.5c0.3,15.4,0.4,30.8,1.1,46.2c0.3,8.7,1.7,17.4,2.1,26.1
	c0.1,2.9,1.8,7.2-1.8,8.1c0.4,5.1,0.9,9.8,1.3,15.2c-0.5,0.4-1.6,1.2-3.5,2.6c5.8-0.8,4.9,3.2,5.6,6c2,8.2,1.7,16.3-0.5,24.5
	c-0.9,3.3,0.2,7.1,0.2,10.6c0,9.8-0.1,19.6-0.2,29.4c-0.1,5.6-0.2,11.2-0.3,16.8c-0.1,3.1,0,6.2-0.4,9.2c-0.4,3-1.3,6-2.1,9.3
	c-4.6,0.4-5.3,4.3-5.2,8.9c-5,1.7-7.5-7.8-12.8-2.4c-1.7-2.9-3-5.3-4.7-8.2c-2.5,6.6-7.2,7.7-13.3,7.2c-5.2-0.4-10.5,1-15.7,0.9
	c-13.8-0.2-27.7-0.9-41.5-1.3c-4.2-0.1-8.4-0.2-12.6,0.3c-9.9,1.1-20.2,1.3-29.7,4c-7.2,2.1-14.3,2.2-21.5,2.8
	c-4.7,0.4-7.5-3.3-8.9-7.1c-1.9-5.2-5.2-7.2-10.7-5.1c-0.3,0.1-0.6,0-2.3,0c1.6-3.4,3-6.4,4.2-8.9c-1.4-2-2.8-4.1-4.5-6.5
	c4.7-2.3,6.5-4.2,1.9-8c-3.1-2.5-1.5-12.5,0.5-17.2c2-4.6,3.7-9.8,3.7-14.7c-0.1-12.3-1.4-24.5-2-36.8c-0.2-4.6-0.7-8.1-8-6.1
	c0.4-3.8,0.9-6.8,1-9.9c0.2-5.7,0.2-11.5,0-17.2c-0.2-4.1-0.9-8.1,2.5-9.3c-0.7-6-1.7-11.3-1.9-16.6c-0.4-10.9-0.3-21.8-0.5-32.7
	c-0.1-5.5,0.6-11.2-0.6-16.4c-1.3-5.8-0.5-11.3-0.5-17c-0.2-25.7-0.5-51.4-0.8-77c-0.1-10.3,0.4-20.6-0.4-30.9
	c-1.3-17.4-3.4-34.7-4.9-52c-1.1-12.9-2.4-25.8-2.6-38.7c-0.2-14.1,0.9-28.2,1.2-42.2c0.1-3.2-0.9-6.5-1.1-9.7c-0.2-3-0.2-6-0.3-9
	c-0.2-7.1-0.5-14.3-0.5-21.4c0-2.4,0.5-4.8,1.1-7.2c0.5-2.3,2-4.5,1.9-6.6c-0.2-5.8,0.8-10.5,5.8-14.2c1.1-0.8,0.7-3.6,1.1-6.2
	c4.2,5.3,7.4,3.2,12.5,0.4c4.4-2.5,11.1-0.7,16.9-0.8c1.4,0,2.9,0.1,4.2-0.1c2.7-0.6,5.3-1.9,8-2.1c8.5-0.6,17-0.9,25.6-1.3
	c0.2-0.6,0.6-1.1,0.6-1.4c-1.9-7.1,3.3-12.2,5.1-18.3c1.4-4.6,1.8-9.5,2.3-14.3c0.6-5.2-1.7-9-5.9-12.1c-1.4-1-2.1-3.9-2-6
	c0-15.9,0.3-31.9,0.4-47.8c0.1-7.4,0.1-14.8-0.2-22.2c-0.1-2.9-1.7-5.7-2.1-8.6c-0.7-6.4-1.6-12.8-1.5-19.2
	c0.2-16.1,0.8-32.3,1.3-48.4c0-1.3,0.6-2.7,1.4-3.8c1.7-2.5,1.9-4.3-0.9-6.5c-1.3-1-1.3-4.3-1.2-6.5c0.2-4.4,1.1-8.8,1.4-13.2
	c0.2-3.1,0.1-6.3-0.1-9.5c-0.2-2.8-0.6-5.6-0.9-8.4c-0.1-0.8,0.1-1.7,0-2.5c-1.5-16.9-3.5-33.9-4.5-50.8
	c-0.6-10.6,0.6-21.2,0.5-31.8c-0.1-6.9-1.1-13.9-1.5-20.8c-0.1-2.4,0.7-4.9,0.6-7.4c-0.3-7.3-1-14.5-1.4-21.7
	c-0.4-6.4-0.7-12.9-0.7-19.3c0-2.2,1.1-4.5,1.4-5.6c-0.9-10.2-1.7-19.5-2.5-28.8c-0.5,0-1.1-0.1-1.6-0.1c0.9-1.1,1.8-2.2,2.1-2.6
	c-0.9-6.9-1.7-13.1-2.5-19.3c4.4-0.6,5.5-2.8,3.4-6.3c-0.6-1-1.8-1.7-2.1-2.7c-0.5-1.5-0.6-3.2-0.8-4.9c1.4-0.4,2.7-0.9,4.5-1.4
	c-1.2-1.2-2-2.1-2.4-2.6c0.8-2.6,0.9-5.3,2.3-6.6c2.6-2.6,5.8-4.9,9.1-6.3c3.9-1.6,8.3-2.7,12.5-2.9c7.9-0.3,15.8-4.9,23.8,0.8
	c2.3,1.7,6.5,0.7,9.8,1c9.9,0.9,19.7,2.3,29.6,2.5c9.8,0.2,19.7-1.5,29.5-1.1c10.4,0.5,21.5-1.8,31.4,5.1c-1.2,0.3-2,0.5-2.9,0.7
	c0.2,0.2,0.5,0.5,0.6,0.5c5.1-1.5,10.1-3.1,15.2-4.7c1.5-0.4,3.1-0.9,4.6-0.9c6.6,0.2,13.2,0.8,19.9,0.9c1.3,0,2.8-1.1,3.8-2.1
	c5.5-5.2,10.9-10.5,16.1-15.9c1-1.1,0.9-3.3,1.9-4.4c5.9-6.6,11.9-13,17.9-19.5c5.5-6.1,11-12.3,16.5-18.4c1-1.1,2.1-2,2.9-3.2
	c1.4-1.9,2.5-4,3.8-6c0.5-0.8,1-1.6,1.6-2.4c6.1-8.1,15.2-11.9,23.5-17.1c0.7-0.5,2.2,0.3,3.4,0.6c0,0.4,0.1,0.9,0.1,1.3
	c1.2-1,2.3-2,3.6-3.1c0.8,1.2,1.4,2.3,2.2,3.2c4.2,4.1,3.7,3.9,6.5-1.2c2.8-5.2,8.3-6.1,13.8-6.2c12.5-0.2,25-0.3,37.5-0.6
	c17.9-0.6,35.8-1.7,53.8-1.9c16.1-0.2,32.2,0.5,48.4,0.9c11.8,0.3,23.6,0.5,35.3,1.4c7.2,0.5,14.4,2.3,21.5,3.7
	c1.6,0.3,3.1,1.2,4.4,2.1c2.3,1.7,4.3,2.2,7.5,2.1c4.7-0.2,9.6,2,14.1,4c2.4,1.1,3.9,2.4,5.9-0.1c0.2-0.3,0.5-0.7,0.7-0.7
	c2.9,0.1,6,0.9,8.8,0.4c2.8-0.5,5-2.6,7.8,1c2.6,3.4,8.8,0.9,9.1-3.9c0.3-4.2,2.3-4.9,5.7-5c11.1-0.3,22.2-0.7,33.3-1.1
	c1.9-0.1,3.8-0.9,5.8-1c9-0.2,18-0.4,27.1-0.3c11.9,0.1,23.9,0.4,35.8,0.7c8.1,0.2,16.2,0.7,24.3,0.8c11.1,0.2,22.2,0.1,33.2,0.2
	c1.6,0,3.1,0.8,4.6,1.4c1.7,0.6,3.4,1.4,5.5,1.2c-0.9-0.7-1.7-1.4-3.3-2.7c1.8-0.2,2.7-0.4,3.7-0.4c5.8,0,11.1,2.4,17.7,0.7
	c6.3-1.7,13.9,1.4,21,2.5c7.6,1.1,15.2,2.9,22.9,3.3c10.6,0.6,21.3-0.2,31.9,0.1c8.1,0.2,15.4-1.5,22.1-6.7
	c-0.3-0.5-0.8-1.3-1.2-2.1c0.5-0.4,0.8-0.7,1.1-0.7c13.9,0,27.8,0.1,41.7,0.2c4.6,0,9.2,0.1,13.8,0.2c0.5,0,1.2,0.2,1.5,0
	c7.2-6.1,14.8-1.9,22.3-1c1.4,0.2,2.9-1.3,4.4-1.4c4.1-0.3,8.3-0.7,12.5-0.4c3.2,0.2,6.8-1.6,9.3,3.5c1,2.1,7.3,1.8,11.2,2.5
	c0.5,0.1,1,0,0.7,0c-0.9,1-3.3,2.9-3,3.5c2.6,6-3,5.4-5.3,6.1c-5.8,1.7-11.9,2.4-18.3,3.5c0.9,4.4-2.6,4.5-5.7,4.7
	c-4.4,0.3-9.6,1.8-13.1,0.1c-3.5-1.7-7.3-2.7-10.7-4.5c-3.4-1.8-5.1-0.8-6.6,2.3c-0.5,1-1.6,2.4-2.5,2.5c-4.3,0.3-8.9,1.1-12.9,0
	c-5-1.4-7.8-1.2-7.7,4.7c-8.9-2.6-10.8-1.4-10.4,8c-2.1-5-3.3-9.8-10.1-6.3c2.6,1.4,4.6,2.6,6.4,3.6c-2.3,1.7-2.7,1.6-9.5-3.6
	c-2.2,4-5,6.1-9.4,2.7c-0.5-0.4-1.6-0.2-2.4,0c-15.8,3.9-31.8,1.2-47.7,1.1c-29.9-0.3-59.8-1.3-89.6-2c-15.6-0.3-31.2-0.1-46.8-1
	c-12.8-0.7-25.6-2.9-38.4-4c-5.5-0.5-11,0.4-16.5,0.2c-2.9-0.1-5.9-1.7-8.8-1.7c-8.8-0.3-17.6-0.3-26.5-0.1
	c-9.6,0.2-19.2,1.1-28.8,1.2c-23.3,0.2-46.7,0.3-70,0c-11.1-0.2-22.1-2.1-33.2-2.4c-10.1-0.3-20.3,0.4-30.5,0.7c-1.9,0-3.8,0-5.8,0
	c1.1,3.1,2.7,5.7,2.9,8.4c0.4,5.5-0.2,11.1-0.1,16.6c0.3,11.1,1,22.2,1.2,33.3c0.2,9.4,0,18.9,0,29.5c8.7,0,16.8-0.8,24.7,0.2
	c7.8,1,14.6-0.9,21.8-2.9c2.6-0.7,5.8,0.9,8.7,1.4c1.8,0.3,3.6,0.6,6.8,1.1c-1.4-1.9-1.9-2.6-2.4-3.3c0.2-0.5,0.3-1,0.5-1.4
	c3.4,1.2,6.7,2.4,10.2,3.6c2-2,2.5-5.8,7.2-5.7c3.9,0,7.6-2.7,11.6-3.3c1.7-0.2,4.7,1.6,5.5,3.3c2.7,6,13.6,12.1,20.1,10.8
	c2.3-0.5,4.6-0.5,6.9-0.6c6.2-0.3,12.5-0.6,18.7-0.7c1.9,0,3.8,0.9,4.6,1.1c3.8-0.9,7.7-3.1,9.7-2c6.5,3.5,12.7,0.4,18.9,0.4
	c11.3,0.1,22.6,0.2,33.9-0.1c11.2-0.2,22.4-1.1,33.6-1.2c12.7-0.1,25.3,0.3,38,0.5c13.4,0.2,26.8,0.4,40.2,0.9
	c12.1,0.4,24.3,1.3,36.4,1.7c8.3,0.2,16.6-0.1,24.8-0.1c19.9,0,39.8,0,59.8,0c10.6,0,21.2-0.1,31.8-0.2c10.9-0.1,21.8-0.3,32.7-0.6
	c4.2-0.1,8.3-0.7,8.3-6.7c0-1.8,1.4-3.7,2.5-5.4c1.8-2.7,3.8-5.2,5.2-7c0.4-2.6,0.2-4.7,1.1-6c6.9-10.5,13.8-21,21-31.4
	c7.8-11.2,16.6-21.8,23.6-33.5c4.7-7.8,8.5-16,14.4-23.1c0.7-0.8,0.3-3.6-0.6-4.4c-1.9-1.7-4.3-3-6.7-3.9c-2.8-1.1-6-1.1-8.5-2.5
	c-3.5-1.9-6.4-4.7-9.7-7.3c2.4-1.9,4.1-3.2,6.4-5c-2-0.2-3.3-0.4-4.5-0.5c-0.1-0.5-0.2-0.9-0.3-1.4c3.8-1,7.6-2,11.8-3.2
	c-0.5-0.5-0.9-1-1.7-1.9c1.2-0.4,2.4-1.1,3.5-1c15.8,0.7,31.6,2,47.4,2.2c9,0.1,18.1-1.3,27.2-2c2.5-0.2,4.9-0.3,7.4-0.5
	c5.7-0.3,11.5-0.7,17.2-0.9c4.9-0.2,9.9-0.4,14.8-0.5c10.1-0.2,20.3-0.6,30.4-0.2c7.1,0.3,14.2,1.7,21.3,2.6
	c1.8,0.2,3.6,0.3,5.7,0.4c0.4-0.8,1-2,1.1-2.3c6.6,0,12.6,0,18.8,0c7.2,6,6.3,15,6.5,23.4c0.2,10.7-0.8,21.5-1,32.2
	c-0.1,6.1,0.5,12.3,0.3,18.4c-0.1,4.9-1,9.8-1.4,14.7c-0.7,9.6-1.4,19.2-2.2,30.1c2.2-2.7,3.6-4.5,5.1-6.3c0.4,0.2,0.9,0.4,1.3,0.5
	c-1.1,2.7-1.7,5.7-3.3,8c-1.9,2.6-2.6,4.5-1.6,7.9c1.4,4.6,0.8,9.8,2.3,14.4c1.3,3.7,4,7.1,6.9,9.9c2.9,2.9,7,4.7,10.1,7.5
	c5.7,5.3,11.2,10.9,16.5,16.5c10.4,11,21,21.8,31,33.2c7.4,8.5,14.1,17.6,20.9,26.6c5.7,7.5,11.2,15.3,16.8,22.9
	c9.2,12.5,18.5,24.9,27.6,37.4c12.9,18,25.7,36.1,38.5,54.3c7,9.9,13.5,20.2,20.4,30.2c4.7,6.8,9.9,13.4,14.6,20.2
	c3.8,5.4,7.4,11.1,11,16.6c5.1,7.9,10.2,15.8,15.1,23.7c0.7,1.1,0.3,2.8,1,3.8c2.8,3.7,5.9,7.2,8.6,10.9
	c5.2,7.2,10.3,14.4,15.3,21.7c3.2,4.7,6.1,9.7,9.3,14.4c5.9,8.5,11.3,17.5,18.2,25c7.8,8.6,13.6,18.7,21.3,27.2
	c7.4,8.2,13.7,17.1,14.6,28.8c0.2,2.8,1.5,5.7,3,8.1c0.9,1.4,3.2,2.3,5,2.5c0.6,0.1,1.7-2.6,2.3-4.1c0.3-0.7,0-1.6,0.5-2.7
	c2.6,4,8.8,5.3,8,11.9c-0.1,0.7,1.7,1.7,2.6,2.5c1.7,1.4,3.5,2.8,6.3,5c-2.4,0.1-3.3,0.2-4.4,0.3c5.2,5.4,10.7,10.1,15.1,15.7
	c4.3,5.6,7.3,12.2,11.1,18.1c2.3,3.6,5.3,6.8,7.9,10.3c3.4,4.6,6.8,9.3,10.1,13.9c0.4,0.6,0.4,1.5,0.6,2.3c0.2,1,0.4,2,0.7,3
	c1.2-0.5,2.3-1,4.4-2c0.5,1.9,0.9,3.9,1.6,6.6c-2-0.7-3.3-1.2-4.5-1.6c-0.4,0.4-0.7,0.9-1.1,1.3c4.9,4.9,9.1,10.9,14.8,14.5
	c3.9,2.5,10,3,14.7,2.1c9.9-2,19.4-1.7,29.2,0.3c6,1.3,11.9,1.2,18.1,0.7c7.8-0.6,15.8,0.8,23.8,1.5c3,0.2,6.2,0,8.8,1.2
	c8.8,3.9,11.7,10.5,10.5,20.3c-0.6,4.9,0.6,9.9,0.5,14.8c-0.1,5.4-0.6,10.8-0.9,16.2c-1.2,19.2-2.5,38.4-3.7,57.6c0,0.3,0,0.6,0,1
	c2.3,22.7,0.1,45.4-0.3,68.1c-0.2,10,0.3,20-0.7,29.9c-0.9,8.3-1.9,16.5-0.1,24.8c0.2,1.1-1.3,3-2.4,3.7c-0.6,0.4-2.4-0.9-3.4-1.8
	c-0.8-0.7-1.3-1.9-1.3-1.9c-5.1,1-9.8,1.9-15.5,3c0.2,3.7,0.3,8.4,0.8,13.1c0.8,9.2,2,18.4,2.5,27.6c0.3,5.5-0.9,11.2-0.2,16.6
	c1.5,12.1,0.8,24.1,0.6,36.1c-0.2,10.7-0.7,21.3-0.9,32c0,1,0.7,2.7,1.3,2.8c5.9,0.9,11.1,4,17.8,2.2c6.8-1.8,14.3-0.5,21.6-0.4
	c3.7,0,7.4,0.4,11-0.2c2.3,1.1,4.8,1.9,6.8,3.4c1.1,0.8,1.8,2.6,1.9,4c0.2,16.3,0.1,32.6,0.3,48.9c0,2.2,0.8,4.4,1.3,6.7
	c0.3,1.4,1,2.8,1.1,4.3c0.4,8.1,0.8,16.1,0.9,24.2c0,2.9-1.3,5.8-1.3,8.7c0.2,9.3,0.9,18.5,1.1,27.8c0.1,2.3-0.9,4.6-2.6,6.7
	c-0.3-0.9-0.6-1.7-1.1-3.1c-1,1.2-1.7,2.1-2.2,2.7c-2.6-0.6-5.9-0.4-7-1.9c-1.5-2-1.3-5.2-1.7-7.5c-3,4-6.3,8.3-8.6,11.5
	c-3.3,0-5.7-0.1-8.1,0c-13.4,0.7-26.9,2.2-40.3,2c-23.8-0.4-47.5-2-71.3-2.9c-27-1-53.8-3.4-80.5-7.2c-17.9-2.6-36-4.3-54.1-5.2
	c-12.7-0.6-25.5,0.6-38.3,1.4c-1.7,0.1-3.4,2.4-5,3.7c-0.8,0.7-1.6,1.5-2.6,2.6c0.6,0.5,1.7,1.4,2.9,2.4c-1.5,1.2-2.8,2.2-4.4,3.3
	c-0.4-2.8-0.8-5.5-1.1-7.8c-3.2,1.5-5.7,2.7-8.5,4c-0.8-7.9-1.1-8-8.1-8.5c-4.3-0.3-8.6-1.5-12.9-1.4c-4.5,0.1-4.6-3.6-6.1-6
	c-0.2-0.3,1.8-2.1,3.4-3.8c-3.1-1.1-6.5-2.4-9.8-3.6c9.1-2.7,9.5-3.1,7.7-6.6c4.4-2.3,8.7-4.5,12.9-6.7c0-8.4-0.1-16.4,0-24.5
	c0.1-3.7,0.6-7.4,0.7-11.1c0.1-1.9-0.4-3.8-0.4-5.7c0.2-6.8,1-13.6,0.8-20.4c-0.2-5.4-1.3-10.8-2.2-16.2c-0.4-2.3-2-4.7,1.1-6.6
	c0.7-0.4,0.7-2.5,0.5-3.7c-0.7-4.1-1.7-8.1-2.6-12.2c-0.5-2.3-1.3-4.6,2.2-5.5c0.8-0.2,1.7-2.4,1.6-3.6c-0.3-5.5-1.1-10.9-1.4-16.3
	c-0.5-11.9-0.8-23.7-1.1-35.6c-0.4-13-0.4-26-1.4-38.9c-0.8-10.1-2.9-20.1-4.5-30.6c-3.2,1.3-7-1.1-8.5,3.5
	c-0.2,0.6-2.9,0.8-4.2,0.4c-6.6-2-13.1-5-19.9-6.1c-7.3-1.2-14.8-0.7-22.3-0.7c-8.2-0.1-16.4,0-24.5,0c-13.2,0-26.4,0.6-39.6,0
	c-13.1-0.6-26.3-1.7-38.9-6.3c-5.9-2.2-7.4-1-8.7,5.2c-2.9,13.4-0.7,26.8-0.6,40.2c0.1,11.9-1,23.8-1.6,35.6c0,0.7-0.3,1.3-0.3,2
	c0.2,16.6,0.3,33.1,0.7,49.7c0.3,12.6,0.8,25.2,1.4,37.7c0.4,9.3,1.2,18.7,1.5,28c0.2,6.4,0,12.8,0,19.3c0.8-0.9,1.7-2,2.2-2.6
	c0.8,4.1,1.6,8.3,2.6,12.9c-0.9,0.2-2.4,0.6-4,1.1c0,9,0,18,0,27.3c-3.8-0.2-3.9,2.6-3.9,6.6c0.1,5.1,0.5,10.3-2.4,15.3
	c-1.4,2.3-0.2,6.1-1.3,9.3c-0.3-1.6-0.6-3.3-0.9-4.9c-0.3,0-0.5,0-0.8-0.1c-0.2,2.1-0.4,4.2-0.6,6.5c-2.6,0.5-5.2,1-7.7,1.5
	c-0.4,1.8-0.7,3.7-1.1,5.5c-0.5,0-0.9,0-1.4,0c-0.4-2.6-1.6-5.4-1.2-7.9c0.8-5.2-1.8-10-4.6-12.4c-6.1-5-4.3-12.5-7.6-17.5
	c-4.3-6.6-2.4-13.7-4.8-20.3c-0.9-2.5,0.3-5.7,0.6-9.7c-0.1-0.1-1.4-1.5-1.4-2.9c0.2-5.3,1.3-10.6,1.3-16c0-7.8-0.8-15.7-1-23.5
	c-0.2-7.8,0.1-15.6,0.1-23.3c0-2.9-0.1-5.8-0.3-8.8c-0.4-5.4-1.9-10.9-1.1-16.1c1.3-8.3-0.4-16.5,0.1-24.7c0.5-9,0.1-18.1-0.2-27.2
	c-0.1-5.3,0.4-11-1.3-15.7c-1.9-5.2-1-10.1-1.6-15.2c-0.5-4.3-2.7-8.4-2.8-12.6c-0.2-10.2,0.5-20.4,0.7-30.5
	c0.1-6.9,0.2-13.9,0.2-20.9c0-3.1-0.3-6.4-0.3-9.4c0-7.4-2.8-14.7-3.9-22.1c-0.6-4.1-0.2-8.4-0.5-12.6c-0.1-1.4-0.7-2.7-0.7-2.6
	c0.2-4.9,0.5-8.5,0.4-12.2c-0.1-5.1-0.6-10.2-0.8-15.2c-0.3-7.9-0.3-15.7-0.8-23.6c-0.4-5.8-1.3-11.6-2-17.5c-0.1-1-0.1-2,0.1-3
	c2.8-10.6,1-21.3,0.7-31.9c-0.2-6.1,0.3-12.3,0-18.4c-0.3-7.9-1.6-15.7-1.6-23.6c0-18.3,0.9-36.6,0.9-55c0-18.4-0.8-36.7-0.9-55.1
	c-0.1-8.9,1.5-17.9,0.5-26.6c-0.4-4,0.9-8.5-1.5-12.3c-0.3-0.5-0.3-1.3-0.3-1.9c1.3-9-0.3-17.9-1.2-26.9c-0.5-5.3,0.2-10.7,0-16.1
	c-0.2-6-0.5-12-1-18c-0.8-11.4-2.2-22.7-2.4-34.1c-0.1-4.8-1-9.7,0.8-14.9c1.7-5.1-0.2-11.5-0.6-17.3c0-0.5-0.6-1.1-0.5-1.6
	c2.8-13.1-0.4-26-1.2-38.9c-1.1-17.5-2.6-35-4.1-52.4c-1.8-21-3.7-42-5.5-63c-1.1-12.6-3.1-25.2-2.6-37.7
	c0.6-13.4-0.4-26.5-2.4-39.6c-0.1-0.8-0.4-1.6-0.8-2.8c-1.2,0.7-2.3,1-3.1,1.8c-11.3,11.9-22.3,24-33.8,35.6
	c-10.8,11-22.4,21.3-33.2,32.4c-9.3,9.5-18,19.5-26.7,29.5c-1.5,1.7-2.3,4.3-2.4,6.6c-0.4,4.4-0.1,8.9-0.1,13.5
	c-5.4,2-6.4,3.8-3,7.7c0-1.7,0-2.8,0-4.8c3.4,2.2,5,4.6,3.5,7.7c-0.3,0.7-3,0.4-5.6,0.6c0.6,3.7,1.5,8.1,2,12.5
	c0.2,1.5-1.1,3.2-0.9,4.8c0.7,5.5,0.6,11.6,3,16.4c3.1,6.2,3.1,12.4,3.5,18.8c1,15.7,1.8,31.4,2.6,47.2c1.4,28.1,2.9,56.1,4.1,84.2
	c1.2,27.4,2.1,54.7,3,82.1c0.3,9.1,0.8,18.1,0.9,27.2c0.1,8.5-0.5,17-0.4,25.5c0.1,3.3,2.1,6.6,2.2,9.9c0.7,16.4,1.1,32.7,1.6,49.1
	c0.3,12,0.8,23.9,0.7,35.9c-0.1,14-0.9,28-1,41.9c-0.1,9.6-1.5,19.7,1.1,28.7c3.4,11.8,2,23.4,2.8,35.1c1,15.2,3.1,30.3,4.2,45.5
	c0.8,11.1,0.7,22.3,1.1,33.5c0.2,5.1,0.4,10.1,0.6,15.2c0,1.6-0.4,3.2-0.3,4.7c0.1,1.6,0.5,3.2,0.9,4.8c0.2,0.9,0.9,1.8,0.9,2.8
	c0.7,7.3,1.4,14.7,1.9,22c0.8,14.6,1.5,29.2,2.2,43.9c0.4,9.6,0.7,19.2,0.7,28.8c0,4-0.8,8-1,12.1c-0.2,6.1-0.2,12.2-0.2,18.3
	c0,3.4,0,6.8,0,10.8c-0.9-0.5-1.6-0.9-2.3-1.2c-0.3,0.3-0.7,0.6-1,0.8c0.9,0.8,1.9,1.5,2.6,2.4c0.7,0.9,1.4,2,1.5,3.1
	c0.5,13.3,0.9,26.6,1.5,39.9c0.5,11.3,1.3,22.6,2.1,33.9c0.9,12.6,2.5,25.1,2.6,37.7c0.1,6.1-2.5,12.2-5.1,18.3
	c-0.7-1.2-1.3-2.4-2.3-4.1c-0.6,1.8-1.2,3.2-1.7,4.9c-9.7-4.3-12.6-13.4-16.2-22.5c-5.4,0.6-6.1-2.9-6.6-7.8
	c-0.8-7.8-0.9-16.4-4.4-23.1c-3.8-7.3-4-14.6-4.7-22c-0.5-4.4-0.5-8.6-1.7-13c-1.1-4.1,1.2-8.9,1.1-13.4c-0.1-6.8-1.1-13.7-1.2-20.5
	c-0.1-4.6,1-9.2,1.1-13.9c0.1-10.3,0.1-20.5-0.2-30.8c-0.1-5.9-0.7-11.8-1.1-17.7c-1.2-16.5-2.5-33-3.6-49.5
	c-0.4-5.8-2.8-12.7-0.5-17.1c3.6-6.8-0.6-13.4,2.1-19.7c0.3-0.7-0.5-1.7-0.7-2.7c-0.2-1.1-0.5-2.2-0.6-3.4c-0.2-2.6,0.1-5.3-0.6-7.8
	c-1.4-5.1-3.9-9.3,0.9-14.9c2.3-2.7-0.1-9.6-0.4-14.6c-0.6,0-1.1,0-1.7,0c-0.2,3.7-0.4,7.3-0.6,11c-0.7,0-1.4,0-2.1,0
	c-0.7-8.9-1.4-17.9-2.1-26.8c0.6-0.3,1.3-0.7,1.9-1c0.7,1.2,1.4,2.4,2.1,3.6c0.1-0.1,0.3-0.1,0.4-0.2c-1.8-5.1-3.6-10.1-5.1-14.5
	c-36.3,2.2-72.4,4.4-108.6,6.7c-0.1,2.2-0.2,4.3-0.4,7c-3.9-2.4-4.1,0.6-4.7,3.3c-0.7-1.6-1.2-2.7-1.9-4.4c-1,2.2-1.8,3.7-3.1,6.4
	c-1.9-4.2-2.4-8.9-4.9-10.4c-2.8-1.6-7.3-0.4-10-0.4c-1.6,3.1-3.2,5.4-4,7.9c-0.7,2.1-1.4,4.8-0.6,6.6c3.1,6.9,3.2,14.1,3.1,21.5
	c-0.2,16.5-0.1,33.1-0.2,49.6c0,7.9,0.2,15.9,0,23.8c-0.4,19.4-1.1,38.9-1.6,59.2c-0.6-2.4-0.9-3.9-1.3-5.5c-0.3,0-0.6-0.1-0.8-0.1
	c-0.4,3.7-0.7,7.4-0.9,9.9c1.2,4.8,2.9,8.6,3.1,12.5c1.1,21.9,1.8,43.8,2.8,65.7c0.4,8.7,1.2,17.5,1.7,26.2c0.1,1.3,0,2.8-0.5,3.9
	c-2.1,4.7-4.3,9.3-6.3,13.5c-1.9-3-4.1-6.4-6.8-10.6c-0.8,2.9-1.3,5-1.9,7.1c-0.4,0.1-0.7,0.2-1.1,0.3c-1.2-3.5-2.8-7-3.4-10.7
	c-0.9-4.9-4.3-6.5-8.3-7c-4.7-0.6-9.6-0.2-14.3-0.5c-3.7-0.2-5,1.3-5,4.9c0,3.2-0.6,6.4-1.1,10.6c-2.2-1.2-3.3-2.2-4.6-2.6
	c-1.4-0.4-3.2-1-4.5-0.5c-3.9,1.5-5.9,0.4-6.1-2.8c-5.8-0.8-11.3-1.5-16.8-2.4c-1-0.2-2.4-0.4-2.9-1.1c-2.9-4.1-3-0.2-3.3,0.4
	c-3.4-1.2-6.8-1.9-9.7-3.5c-4.1-2.4-7.1-6-8.1-10.8c-4.5,0.2-8.8-4.7-9.6-11.1c-0.5-4.1-0.9-8.3-1-12.4c-0.3-7.6,0.1-15.1-3.7-22.3
	c-2.8-5.2-0.7-8.2,5-10.8c1.6-0.7,3-1.8,4.3-2.6c-1.8-1.4-3.5-2.6-5.8-4.4c-0.2,0.3-0.9,1.3-1.6,2.3c-0.4-0.2-0.8-0.3-0.8-0.5
	c-2.9-14.1-1.5-33,2.4-35.5c-0.9-2.3-2.2-4.3-2.4-6.5c-0.5-5.3-0.1-10.7-0.7-15.9c-0.7-6.3-2.2-12.5-3.1-18.7c-0.1-0.7,2-1.7,2-2.5
	c-0.1-3-0.6-6.1-1.1-9.8c-0.4,0.1,0.4-0.2,1.2-0.4c-2.6-6.7-3.2-13.4,0.3-20.1c-4.6-4.2-4.6-6.6,0.3-24.9c-1.2,0.7-2.2,1.3-3.9,2.3
	c2.5-12.9-1.9-24.8-1-37.4c0.8-11.7-1.9-23.5,2.7-34.2c-0.7-1.9-1.8-3.6-1.7-5c1.2-10.5,0.4-20.8-2.1-31.1
	c-1.1-4.7-1.6-9.6-1.7-14.4c0-3.5,1.3-7,1.9-10.5c0.3-1.6,0.3-3.2,0.6-6.5c-2.4,5.8-4.5,3.8-5.5,1.3c-1.9-4.8-5.8-4.9-9.9-5.4
	c-7.5-0.9-15.2-1.6-21.6-6.6c-1.2-0.9-3.2-1.5-4.6-1.1c-5.1,1.2-9.9,3.2-15,4.3c-3.8,0.9-7.8,1-11.7,1.2c-3.9,0.2-8.1-2.5-11.6,1.8
	c-0.8,1-4,0.6-5.8,0c-4.3-1.5-9-0.4-13.4-2.6c-2.2-1.1-5.9,1-8.9,0.9c-6-0.1-12-0.8-18-1.2c-2-0.1-3.9-0.3-6.5-0.5
	c0.7,1,1.4,2.2,1.8,2.8c-5.5-0.9-11.3-2.2-17.2-2.6c-4.6-0.3-9.2,0.5-13.8,0.8c-0.3,0-0.7,0.2-1,0.1c-14.5-2.4-29.3,0-43.8-2.4
	c-2.7-0.4-5.7,0.8-8.5,0.5c-3.9-0.3-7.7-1.1-11.5-2c-3-0.7-5.8-2.5-8.5,0.8c-0.4,0.5-3.3-0.7-4.7-1.7c-3.4-2.4-7.9-1.2-8.6,1.5
	c-11.9-1-23.5-2.1-35.2-2.8c-5.7-0.3-11.5,0.3-17.3,0.4c-1.8,0-3.7,0.3-5.5-0.1c-10.9-2.7-21.8-1.8-32.8-1.4
	c-3.6,0.1-7.2-1.1-11.6-1.9c-1.6,1.5-10.7,2.3-13.8,1c-1.6-0.7-3.7-0.5-5.5-0.5c-3.5,0.1-7,0.2-10.5,0.5c-1.8,0.2-3.5,0.9-5.5,1.4
	c-0.4-3-1.8-3.8-4.5-0.9c-3.3,3.7-9,5.3-9.5,11.5c-0.1,0.8-2.5,1.3-4.4,2.2c0.9,1.1,1.7,2.1,2.5,3c-2.9,4.8-3.4,9.6-0.8,12.6
	c-0.7,3-1.3,4.7-1.4,6.4c-0.1,1.6,0.9,3.3,0.7,4.9c-0.3,4.6-1,9.1-1.5,13.6c-0.9,8.1-2,16.2-2.7,24.3c-0.3,3.6,0.4,7.2,0.2,10.8
	c-0.5,8.5-1.3,16.9-1.9,25.4c-0.3,3.8-1.3,8.1,0,11.4c3,8-1.9,15.5-0.3,23.5c1.6,8.3,1.6,17,1.2,25.4c-0.5,9.5,0.3,19.3-4.3,28.3
	c-1.9,3.7,1.5,7,5.6,6.2c1.3-0.2,2.8,0.1,4.2,0.2c0,0.5,0,1.1-0.1,1.6c-8.5,0-17,0.7-25.3-0.4c-3.5-0.5-7.4-1.1-11.1-2.4
	c-4.1-1.4-8.9-0.3-13.4-0.6c-11.8-0.7-23.5-1.7-35.3-2.4c-4.1-0.2-8.2,0.5-12.3,0.7c-1.7,0.1-3.5,0-4.5,0c0-2.2,0.5-3.7-0.1-4.8
	c-1.6-3.1-3.9-5.9-5.3-9.2c-0.7-1.5,0.3-3.7,0.3-5.5c0-6,0-12-0.4-17.9c-0.4-6-1.3-12-1.7-17.9c-0.4-5.1-0.6-10.2-0.6-15.3
	c0.1-6.5,0.8-13,0.9-19.5c0.2-11.7,0.3-23.5,0.1-35.2c-0.1-4.1-1.6-8.1-2.2-12.2c-0.2-1.4,0-3,0.1-4.5c0.3-5.7,0.6-11.3,0.8-17
	c0.1-2.9-1.1-4.7-4.5-4.6c-10.4,0.4-20.8,0.9-31.1,1c-4.4,0.1-8.9-0.2-13.2-1.1c-6-1.2-10.9,1.4-16.2,3.2L365.6,945.6z"/>
</svg>
